<svg width="45" height="45" viewBox="0 0 45 45" fill="none" xmlns="http://www.w3.org/2000/svg">
<path fill-rule="evenodd" clip-rule="evenodd" d="M42 22.5C42 11.7304 33.2696 3 22.5 3C11.7304 3 3 11.7304 3 22.5C3 33.2696 11.7304 42 22.5 42C33.2696 42 42 33.2696 42 22.5ZM45 22.5C45 10.0736 34.9264 0 22.5 0C10.0736 0 0 10.0736 0 22.5C0 34.9264 10.0736 45 22.5 45C34.9264 45 45 34.9264 45 22.5ZM22.4704 13.3333L22.5685 13.4315L22.6208 13.3792L35.5165 26.5457L33.3952 28.667L22.5132 17.5565L11.1965 29.0005L9.07518 26.8792L22.4704 13.3333Z" fill="#9A9A9A"/>
</svg>
