<svg width="118" height="27" viewBox="0 0 118 27" fill="none" xmlns="http://www.w3.org/2000/svg">
<path d="M4 23.0004C4 23.0004 18.4471 4.11009 31.5 4.00045C44.714 3.88946 46.2899 23.3418 59.5 23.0004C72.2298 22.6715 73.2772 4.53549 86 4.00045C99.5275 3.43156 115 23.0004 115 23.0004" stroke="white" stroke-width="2"/>
<path d="M8 23C8 25.2091 6.20914 27 4 27C1.79086 27 0 25.2091 0 23C0 20.7909 1.79086 19 4 19C6.20914 19 8 20.7909 8 23Z" fill="white"/>
<path d="M63 23C63 25.2091 61.2091 27 59 27C56.7909 27 55 25.2091 55 23C55 20.7909 56.7909 19 59 19C61.2091 19 63 20.7909 63 23Z" fill="white"/>
<path d="M35 4C35 6.20914 33.2091 8 31 8C28.7909 8 27 6.20914 27 4C27 1.79086 28.7909 0 31 0C33.2091 0 35 1.79086 35 4Z" fill="white"/>
<path d="M91 4C91 6.20914 89.2091 8 87 8C84.7909 8 83 6.20914 83 4C83 1.79086 84.7909 0 87 0C89.2091 0 91 1.79086 91 4Z" fill="white"/>
<path d="M118 23C118 25.2091 116.209 27 114 27C111.791 27 110 25.2091 110 23C110 20.7909 111.791 19 114 19C116.209 19 118 20.7909 118 23Z" fill="white"/>
</svg>
