<svg width="58" height="30" viewBox="0 0 58 30" fill="none" xmlns="http://www.w3.org/2000/svg">
<g filter="url(#filter0_d_1_16)">
<g filter="url(#filter1_d_1_16)">
<path fill-rule="evenodd" clip-rule="evenodd" d="M19.5 14.75C19.5 17.3733 17.3733 19.5 14.75 19.5C12.1267 19.5 10 17.3733 10 14.75C10 12.1267 12.1267 10 14.75 10C17.3733 10 19.5 12.1267 19.5 14.75ZM33.75 14.75C33.75 17.3733 31.6234 19.5 29 19.5C26.3766 19.5 24.25 17.3733 24.25 14.75C24.25 12.1267 26.3766 10 29 10C31.6234 10 33.75 12.1267 33.75 14.75ZM43.25 19.5C45.8734 19.5 48 17.3733 48 14.75C48 12.1267 45.8734 10 43.25 10C40.6266 10 38.5 12.1267 38.5 14.75C38.5 17.3733 40.6266 19.5 43.25 19.5Z" fill="#D9D9D9"/>
</g>
</g>
<defs>
<filter id="filter0_d_1_16" x="0" y="0" width="58" height="30" filterUnits="userSpaceOnUse" color-interpolation-filters="sRGB">
<feFlood flood-opacity="0" result="BackgroundImageFix"/>
<feColorMatrix in="SourceAlpha" type="matrix" values="0 0 0 0 0 0 0 0 0 0 0 0 0 0 0 0 0 0 127 0" result="hardAlpha"/>
<feOffset/>
<feGaussianBlur stdDeviation="5"/>
<feComposite in2="hardAlpha" operator="out"/>
<feColorMatrix type="matrix" values="0 0 0 0 0 0 0 0 0 0 0 0 0 0 0 0 0 0 0.25 0"/>
<feBlend mode="normal" in2="BackgroundImageFix" result="effect1_dropShadow_1_16"/>
<feBlend mode="normal" in="SourceGraphic" in2="effect1_dropShadow_1_16" result="shape"/>
</filter>
<filter id="filter1_d_1_16" x="0" y="0" width="58" height="29.5" filterUnits="userSpaceOnUse" color-interpolation-filters="sRGB">
<feFlood flood-opacity="0" result="BackgroundImageFix"/>
<feColorMatrix in="SourceAlpha" type="matrix" values="0 0 0 0 0 0 0 0 0 0 0 0 0 0 0 0 0 0 127 0" result="hardAlpha"/>
<feOffset/>
<feGaussianBlur stdDeviation="5"/>
<feComposite in2="hardAlpha" operator="out"/>
<feColorMatrix type="matrix" values="0 0 0 0 1 0 0 0 0 1 0 0 0 0 1 0 0 0 1 0"/>
<feBlend mode="normal" in2="BackgroundImageFix" result="effect1_dropShadow_1_16"/>
<feBlend mode="normal" in="SourceGraphic" in2="effect1_dropShadow_1_16" result="shape"/>
</filter>
</defs>
</svg>
