<svg width="107" height="48" viewBox="0 0 107 48" fill="none" xmlns="http://www.w3.org/2000/svg">
<path fill-rule="evenodd" clip-rule="evenodd" d="M19.2766 2.00012C19.6802 2.00635 20.0406 2.25472 20.1901 2.62977L36.9292 44.6298C37.1337 45.1428 36.8835 45.7245 36.3705 45.9289C35.8574 46.1334 35.2758 45.8833 35.0713 45.3702L19.221 5.60031L1.91732 45.3987C1.69711 45.9052 1.10801 46.1373 0.601528 45.9171C0.095044 45.6969 -0.137027 45.1078 0.0831838 44.6013L18.3441 2.60127C18.505 2.23102 18.8729 1.99389 19.2766 2.00012Z" fill="#6B6B6B"/>
<path fill-rule="evenodd" clip-rule="evenodd" d="M54.2766 2.00012C54.6802 2.00635 55.0406 2.25472 55.1901 2.62977L71.9292 44.6298C72.1337 45.1428 71.8835 45.7245 71.3705 45.9289C70.8574 46.1334 70.2758 45.8833 70.0713 45.3702L54.221 5.60031L36.9173 45.3987C36.6971 45.9052 36.108 46.1373 35.6015 45.9171C35.095 45.6969 34.863 45.1078 35.0832 44.6013L53.3441 2.60127C53.505 2.23102 53.8729 1.99389 54.2766 2.00012Z" fill="#6B6B6B"/>
<path fill-rule="evenodd" clip-rule="evenodd" d="M89.2766 2.00012C89.6802 2.00635 90.0406 2.25472 90.1901 2.62977L106.929 44.6298C107.134 45.1428 106.884 45.7245 106.37 45.9289C105.857 46.1334 105.276 45.8833 105.071 45.3702L89.221 5.60031L71.9173 45.3987C71.6971 45.9052 71.108 46.1373 70.6015 45.9171C70.095 45.6969 69.863 45.1078 70.0832 44.6013L88.3441 2.60127C88.505 2.23102 88.8729 1.99389 89.2766 2.00012Z" fill="#6B6B6B"/>
<path d="M23.0002 4C23.0002 6.20914 21.2094 8 19.0002 8C16.7911 8 15.0002 6.20914 15.0002 4C15.0002 1.79086 16.7911 0 19.0002 0C21.2094 0 23.0002 1.79086 23.0002 4Z" fill="#6B6B6B"/>
<path d="M40.0002 44C40.0002 46.2091 38.2094 48 36.0002 48C33.7911 48 32.0002 46.2091 32.0002 44C32.0002 41.7909 33.7911 40 36.0002 40C38.2094 40 40.0002 41.7909 40.0002 44Z" fill="#6B6B6B"/>
<path d="M75.0002 44C75.0002 46.2091 73.2094 48 71.0002 48C68.7911 48 67.0002 46.2091 67.0002 44C67.0002 41.7909 68.7911 40 71.0002 40C73.2094 40 75.0002 41.7909 75.0002 44Z" fill="#6B6B6B"/>
<path d="M58.0002 4C58.0002 6.20914 56.2094 8 54.0002 8C51.7911 8 50.0002 6.20914 50.0002 4C50.0002 1.79086 51.7911 0 54.0002 0C56.2094 0 58.0002 1.79086 58.0002 4Z" fill="#6B6B6B"/>
<path d="M93.0002 4C93.0002 6.20914 91.2094 8 89.0002 8C86.7911 8 85.0002 6.20914 85.0002 4C85.0002 1.79086 86.7911 0 89.0002 0C91.2094 0 93.0002 1.79086 93.0002 4Z" fill="#6B6B6B"/>
</svg>
