<svg width="65" height="65" viewBox="0 0 65 65" fill="none" xmlns="http://www.w3.org/2000/svg">
<g filter="url(#filter0_d_219_110)">
<path fill-rule="evenodd" clip-rule="evenodd" d="M32.5 52C43.2696 52 52 43.2696 52 32.5C52 21.7304 43.2696 13 32.5 13C21.7304 13 13 21.7304 13 32.5C13 43.2696 21.7304 52 32.5 52ZM32.5 55C44.9264 55 55 44.9264 55 32.5C55 20.0736 44.9264 10 32.5 10C20.0736 10 10 20.0736 10 32.5C10 44.9264 20.0736 55 32.5 55ZM41.6667 32.4704L41.5685 32.5685L41.6208 32.6208L28.4543 45.5165L26.333 43.3952L37.4435 32.5132L25.9995 21.1965L28.1208 19.0752L41.6667 32.4704Z" fill="#D9D9D9"/>
</g>
<defs>
<filter id="filter0_d_219_110" x="0" y="0" width="65" height="65" filterUnits="userSpaceOnUse" color-interpolation-filters="sRGB">
<feFlood flood-opacity="0" result="BackgroundImageFix"/>
<feColorMatrix in="SourceAlpha" type="matrix" values="0 0 0 0 0 0 0 0 0 0 0 0 0 0 0 0 0 0 127 0" result="hardAlpha"/>
<feOffset/>
<feGaussianBlur stdDeviation="5"/>
<feComposite in2="hardAlpha" operator="out"/>
<feColorMatrix type="matrix" values="0 0 0 0 1 0 0 0 0 1 0 0 0 0 1 0 0 0 1 0"/>
<feBlend mode="normal" in2="BackgroundImageFix" result="effect1_dropShadow_219_110"/>
<feBlend mode="normal" in="SourceGraphic" in2="effect1_dropShadow_219_110" result="shape"/>
</filter>
</defs>
</svg>
