<svg width="45" height="45" viewBox="0 0 45 45" fill="none" xmlns="http://www.w3.org/2000/svg">
<path fill-rule="evenodd" clip-rule="evenodd" d="M22.5 3C11.7304 3 3 11.7304 3 22.5C3 33.2696 11.7304 42 22.5 42C33.2696 42 42 33.2696 42 22.5C42 11.7304 33.2696 3 22.5 3ZM22.5 0C10.0736 0 0 10.0736 0 22.5C0 34.9264 10.0736 45 22.5 45C34.9264 45 45 34.9264 45 22.5C45 10.0736 34.9264 0 22.5 0ZM13.3333 22.5296L13.4315 22.4315L13.3792 22.3792L26.5457 9.48352L28.667 11.6048L17.5565 22.4868L29.0005 33.8035L26.8792 35.9248L13.3333 22.5296Z" fill="#9A9A9A"/>
</svg>
