<svg width="85" height="83" viewBox="0 0 85 83" fill="none" xmlns="http://www.w3.org/2000/svg">
<g filter="url(#filter0_d_8_7)">
<path d="M53.0957 55H43.6621L39.9121 45.2441H22.7441L19.1992 55H10L26.7285 12.0508H35.8984L53.0957 55ZM37.1289 38.0078L31.2109 22.0703L25.4102 38.0078H37.1289Z" fill="#D9D9D9"/>
<path d="M74.7051 68.5396V73H57.8716C58.0539 71.3138 58.6007 69.7188 59.5122 68.2148C60.4237 66.6995 62.2238 64.6943 64.9126 62.1992C67.0773 60.1826 68.4046 58.8154 68.8945 58.0977C69.5553 57.1064 69.8857 56.1266 69.8857 55.1582C69.8857 54.0872 69.5952 53.2669 69.0142 52.6973C68.4445 52.1162 67.6527 51.8257 66.6387 51.8257C65.6361 51.8257 64.8385 52.1276 64.2461 52.7314C63.6536 53.3353 63.3118 54.3379 63.2207 55.7393L58.4355 55.2607C58.7204 52.6175 59.6147 50.7205 61.1187 49.5698C62.6226 48.4191 64.5024 47.8438 66.7583 47.8438C69.2306 47.8438 71.1732 48.5103 72.5859 49.8433C73.9987 51.1763 74.7051 52.834 74.7051 54.8164C74.7051 55.9443 74.5 57.021 74.0898 58.0464C73.6911 59.0604 73.0531 60.1257 72.1758 61.2422C71.5947 61.9827 70.5465 63.048 69.0312 64.438C67.516 65.828 66.5532 66.7508 66.1431 67.2065C65.7443 67.6623 65.4196 68.1066 65.1689 68.5396H74.7051Z" fill="#D9D9D9"/>
</g>
<defs>
<filter id="filter0_d_8_7" x="0" y="-10" width="87" height="101" filterUnits="userSpaceOnUse" color-interpolation-filters="sRGB">
<feFlood flood-opacity="0" result="BackgroundImageFix"/>
<feColorMatrix in="SourceAlpha" type="matrix" values="0 0 0 0 0 0 0 0 0 0 0 0 0 0 0 0 0 0 127 0" result="hardAlpha"/>
<feOffset/>
<feGaussianBlur stdDeviation="5"/>
<feComposite in2="hardAlpha" operator="out"/>
<feColorMatrix type="matrix" values="0 0 0 0 1 0 0 0 0 1 0 0 0 0 1 0 0 0 1 0"/>
<feBlend mode="normal" in2="BackgroundImageFix" result="effect1_dropShadow_8_7"/>
<feBlend mode="normal" in="SourceGraphic" in2="effect1_dropShadow_8_7" result="shape"/>
</filter>
</defs>
</svg>
