<svg width="77" height="83" viewBox="0 0 77 83" fill="none" xmlns="http://www.w3.org/2000/svg">
<g filter="url(#filter0_d_8_45)">
<path d="M10.3945 12.0508H27.5625C30.9609 12.0508 33.4902 12.1973 35.1504 12.4902C36.8301 12.7637 38.3242 13.3496 39.6328 14.248C40.9609 15.1465 42.0645 16.3477 42.9434 17.8516C43.8223 19.3359 44.2617 21.0059 44.2617 22.8613C44.2617 24.873 43.7148 26.7188 42.6211 28.3984C41.5469 30.0781 40.082 31.3379 38.2266 32.1777C40.8438 32.9395 42.8555 34.2383 44.2617 36.0742C45.668 37.9102 46.3711 40.0684 46.3711 42.5488C46.3711 44.502 45.9121 46.4062 44.9941 48.2617C44.0957 50.0977 42.8555 51.5723 41.2734 52.6855C39.7109 53.7793 37.7773 54.4531 35.4727 54.707C34.0273 54.8633 30.541 54.9609 25.0137 55H10.3945V12.0508ZM19.0664 19.1992V29.1309H24.75C28.1289 29.1309 30.2285 29.082 31.0488 28.9844C32.5332 28.8086 33.6953 28.3008 34.5352 27.4609C35.3945 26.6016 35.8242 25.4785 35.8242 24.0918C35.8242 22.7637 35.4531 21.6895 34.7109 20.8691C33.9883 20.0293 32.9043 19.5215 31.459 19.3457C30.5996 19.248 28.1289 19.1992 24.0469 19.1992H19.0664ZM19.0664 36.2793V47.7637H27.0938C30.2188 47.7637 32.2012 47.6758 33.041 47.5C34.3301 47.2656 35.375 46.6992 36.1758 45.8008C36.9961 44.8828 37.4062 43.6621 37.4062 42.1387C37.4062 40.8496 37.0938 39.7559 36.4688 38.8574C35.8438 37.959 34.9355 37.3047 33.7441 36.8945C32.5723 36.4844 30.0137 36.2793 26.0684 36.2793H19.0664Z" fill="#D9D9D9"/>
<path d="M66.7744 73H61.9722V54.9019C60.2176 56.5425 58.1497 57.7559 55.7686 58.542V54.1841C57.0218 53.7739 58.3833 52.9992 59.853 51.8599C61.3228 50.7091 62.3311 49.3704 62.8779 47.8438H66.7744V73Z" fill="#D9D9D9"/>
</g>
<defs>
<filter id="filter0_d_8_45" x="-4" y="-10" width="87" height="101" filterUnits="userSpaceOnUse" color-interpolation-filters="sRGB">
<feFlood flood-opacity="0" result="BackgroundImageFix"/>
<feColorMatrix in="SourceAlpha" type="matrix" values="0 0 0 0 0 0 0 0 0 0 0 0 0 0 0 0 0 0 127 0" result="hardAlpha"/>
<feOffset/>
<feGaussianBlur stdDeviation="5"/>
<feComposite in2="hardAlpha" operator="out"/>
<feColorMatrix type="matrix" values="0 0 0 0 1 0 0 0 0 1 0 0 0 0 1 0 0 0 1 0"/>
<feBlend mode="normal" in2="BackgroundImageFix" result="effect1_dropShadow_8_45"/>
<feBlend mode="normal" in="SourceGraphic" in2="effect1_dropShadow_8_45" result="shape"/>
</filter>
</defs>
</svg>
