<svg width="81" height="83" viewBox="0 0 81 83" fill="none" xmlns="http://www.w3.org/2000/svg">
<g filter="url(#filter0_d_8_42)">
<path d="M10.3945 12.0508H27.5625C30.9609 12.0508 33.4902 12.1973 35.1504 12.4902C36.8301 12.7637 38.3242 13.3496 39.6328 14.248C40.9609 15.1465 42.0645 16.3477 42.9434 17.8516C43.8223 19.3359 44.2617 21.0059 44.2617 22.8613C44.2617 24.873 43.7148 26.7188 42.6211 28.3984C41.5469 30.0781 40.082 31.3379 38.2266 32.1777C40.8438 32.9395 42.8555 34.2383 44.2617 36.0742C45.668 37.9102 46.3711 40.0684 46.3711 42.5488C46.3711 44.502 45.9121 46.4062 44.9941 48.2617C44.0957 50.0977 42.8555 51.5723 41.2734 52.6855C39.7109 53.7793 37.7773 54.4531 35.4727 54.707C34.0273 54.8633 30.541 54.9609 25.0137 55H10.3945V12.0508ZM19.0664 19.1992V29.1309H24.75C28.1289 29.1309 30.2285 29.082 31.0488 28.9844C32.5332 28.8086 33.6953 28.3008 34.5352 27.4609C35.3945 26.6016 35.8242 25.4785 35.8242 24.0918C35.8242 22.7637 35.4531 21.6895 34.7109 20.8691C33.9883 20.0293 32.9043 19.5215 31.459 19.3457C30.5996 19.248 28.1289 19.1992 24.0469 19.1992H19.0664ZM19.0664 36.2793V47.7637H27.0938C30.2188 47.7637 32.2012 47.6758 33.041 47.5C34.3301 47.2656 35.375 46.6992 36.1758 45.8008C36.9961 44.8828 37.4062 43.6621 37.4062 42.1387C37.4062 40.8496 37.0938 39.7559 36.4688 38.8574C35.8438 37.959 34.9355 37.3047 33.7441 36.8945C32.5723 36.4844 30.0137 36.2793 26.0684 36.2793H19.0664Z" fill="#D9D9D9"/>
<path d="M70.7051 68.5396V73H53.8716C54.0539 71.3138 54.6007 69.7188 55.5122 68.2148C56.4237 66.6995 58.2238 64.6943 60.9126 62.1992C63.0773 60.1826 64.4046 58.8154 64.8945 58.0977C65.5553 57.1064 65.8857 56.1266 65.8857 55.1582C65.8857 54.0872 65.5952 53.2669 65.0142 52.6973C64.4445 52.1162 63.6527 51.8257 62.6387 51.8257C61.6361 51.8257 60.8385 52.1276 60.2461 52.7314C59.6536 53.3353 59.3118 54.3379 59.2207 55.7393L54.4355 55.2607C54.7204 52.6175 55.6147 50.7205 57.1187 49.5698C58.6226 48.4191 60.5024 47.8438 62.7583 47.8438C65.2306 47.8438 67.1732 48.5103 68.5859 49.8433C69.9987 51.1763 70.7051 52.834 70.7051 54.8164C70.7051 55.9443 70.5 57.021 70.0898 58.0464C69.6911 59.0604 69.0531 60.1257 68.1758 61.2422C67.5947 61.9827 66.5465 63.048 65.0312 64.438C63.516 65.828 62.5532 66.7508 62.1431 67.2065C61.7443 67.6623 61.4196 68.1066 61.1689 68.5396H70.7051Z" fill="#D9D9D9"/>
</g>
<defs>
<filter id="filter0_d_8_42" x="-4" y="-10" width="87" height="101" filterUnits="userSpaceOnUse" color-interpolation-filters="sRGB">
<feFlood flood-opacity="0" result="BackgroundImageFix"/>
<feColorMatrix in="SourceAlpha" type="matrix" values="0 0 0 0 0 0 0 0 0 0 0 0 0 0 0 0 0 0 127 0" result="hardAlpha"/>
<feOffset/>
<feGaussianBlur stdDeviation="5"/>
<feComposite in2="hardAlpha" operator="out"/>
<feColorMatrix type="matrix" values="0 0 0 0 1 0 0 0 0 1 0 0 0 0 1 0 0 0 1 0"/>
<feBlend mode="normal" in2="BackgroundImageFix" result="effect1_dropShadow_8_42"/>
<feBlend mode="normal" in="SourceGraphic" in2="effect1_dropShadow_8_42" result="shape"/>
</filter>
</defs>
</svg>
