<svg width="45" height="45" viewBox="0 0 45 45" fill="none" xmlns="http://www.w3.org/2000/svg">
<path fill-rule="evenodd" clip-rule="evenodd" d="M42 22.5C42 11.7304 33.2696 3 22.5 3C11.7304 3 3 11.7304 3 22.5C3 33.2696 11.7304 42 22.5 42C33.2696 42 42 33.2696 42 22.5ZM45 22.5C45 10.0736 34.9264 0 22.5 0C10.0736 0 0 10.0736 0 22.5C0 34.9264 10.0736 45 22.5 45C34.9264 45 45 34.9264 45 22.5ZM23.2883 8.43474L30.3839 15.0083C30.8193 15.4117 30.8193 16.0657 30.3839 16.4691C29.9485 16.8725 29.2425 16.8725 28.8071 16.4691L23.6149 11.6589V34.8164H21.385V11.6589L16.1928 16.4691C15.7573 16.8725 15.0514 16.8725 14.616 16.4691C14.1805 16.0657 14.1805 15.4117 14.616 15.0083L21.7115 8.43474C22.1469 8.03135 22.8529 8.03135 23.2883 8.43474Z" fill="#9A9A9A"/>
</svg>
