<svg width="19" height="19" viewBox="0 0 19 19" fill="none" xmlns="http://www.w3.org/2000/svg">
<path fill-rule="evenodd" clip-rule="evenodd" d="M9.5 0C14.7467 0 19 4.25329 19 9.5C19 14.7467 14.7467 19 9.5 19C4.25329 19 0 14.7467 0 9.5C0 4.25329 4.25329 0 9.5 0ZM16.2321 4.30997C14.6777 2.2967 12.2403 1 9.5 1C4.80558 1 1 4.80558 1 9.5C1 14.1944 4.80558 18 9.5 18C14.1944 18 18 14.1944 18 9.5C18 8.27787 17.7421 7.11599 17.2777 6.06581L9.72681 14.1322C9.35628 14.5445 8.74901 14.5505 8.37044 14.1456L3.72844 9.16824C3.34987 8.76336 3.34335 8.10094 3.71387 7.68869C4.0844 7.27643 4.69167 7.27045 5.07024 7.67533L9.02677 11.9196L16 4.5C16.07 4.42216 16.1484 4.35881 16.2321 4.30997Z" fill="white"/>
</svg>
