<svg width="70" height="70" viewBox="0 0 70 70" fill="none" xmlns="http://www.w3.org/2000/svg">
<g filter="url(#filter0_d_212_95)">
<path fill-rule="evenodd" clip-rule="evenodd" d="M48.6719 15.0779C50.7623 15.0779 51.5433 16.1428 52.7002 17.2997C53.8571 18.4566 54.9219 19.2376 54.9219 21.3281C54.9219 22.8276 54.0336 23.783 53.204 24.9812C52.269 26.3318 52.5204 25.0712 53.7796 28.6227C54.0157 29.2886 54.1428 29.0358 55.6947 29.3443C56.4928 29.5029 57.2135 29.5851 57.8557 29.9174C59.4118 30.723 59.8789 31.9894 60 33.4597V36.7577C60 38.2008 58.8883 39.5185 57.92 40.0487C57.2081 40.4386 55.5111 40.7081 54.6121 40.8424C53.4097 41.0219 54.1454 41.0563 53.0351 43.2692C52.4752 44.3849 52.4817 44.0013 53.1638 44.961C54.1547 46.3555 54.9219 47.165 54.9219 48.867C54.9219 50.7506 53.672 51.7282 52.7002 52.7001C51.5433 53.857 50.7623 54.9218 48.6719 54.9218C47.1724 54.9218 46.217 54.0335 45.0188 53.2038C43.6683 52.2689 44.9288 52.5203 41.3774 53.7795C40.7115 54.0156 40.9643 54.1427 40.6558 55.6947C40.4953 56.5018 40.4172 57.2016 40.0815 57.8548C39.2818 59.4113 38.0145 59.8787 36.5433 60H33.2424C31.4172 60 29.5313 58.2173 29.5313 56.3866C29.5313 55.2793 30.9763 54.8272 31.7134 55.5717C32.0604 55.9222 31.9755 56.0593 32.1669 56.4856C32.7532 57.791 34.1075 57.4609 36.172 57.4609C37.3396 57.4609 37.7745 56.966 37.9728 55.9415C38.1629 54.9594 38.2954 54.1133 38.4731 53.1215C38.8161 51.2063 39.648 51.9428 42.5208 50.5286C44.4434 49.5823 44.1115 49.2738 46.8312 51.2936C49.1012 52.9793 49.2144 52.4748 50.8447 50.8445C51.29 50.3994 52.199 49.7084 52.3138 49.0191C52.4951 47.9322 50.5135 45.9932 49.9424 44.8592C49.5189 44.0177 50.1166 43.3578 50.5285 42.5208C50.8841 41.7987 51.1949 40.9855 51.4679 40.1396C52.0937 38.2001 52.3096 38.6213 55.9418 37.973C57.8437 37.6335 57.4607 36.1586 57.4607 33.8278C57.4607 31.7876 55.7384 32.0344 53.1221 31.526C51.197 31.1518 51.9693 30.4054 50.5288 27.4785C50.3601 27.136 50.0879 26.6885 49.9563 26.3896C49.4932 25.3359 50.3467 24.4436 51.2937 23.1683C51.672 22.659 52.442 21.7475 52.3138 20.9802C52.2013 20.3052 49.6942 17.7982 49.0193 17.6857C47.9324 17.5043 45.9934 19.486 44.8595 20.0571C44.436 20.2702 44.0642 20.2428 43.61 20.0434C42.4318 19.5254 42.0282 19.0676 40.1344 18.5371C39.0659 18.2379 38.6595 18.0746 38.4577 16.8934C37.6474 12.1496 38.1627 12.5386 33.828 12.5386C32.6604 12.5386 32.2255 13.0336 32.0272 14.0581C31.8371 15.0401 31.7046 15.8863 31.5269 16.878C31.1839 18.7932 30.352 18.0568 27.4792 19.4709C25.5566 20.4173 25.8885 20.7258 23.1688 18.706C20.8988 17.0202 20.7856 17.5247 19.1553 19.155C17.4077 20.9027 17.0934 20.995 18.7063 23.1686L20.0573 25.1403C20.4809 25.9818 19.8831 26.6417 19.4712 27.4788C19.1402 28.1512 18.7633 29.0585 18.5374 29.8655C18.2382 30.934 18.0749 31.3404 16.8937 31.5422C12.1501 32.3526 12.539 31.8372 12.539 36.172C12.539 37.1334 12.8459 37.5333 13.5143 37.8334C13.8987 38.006 14.0566 37.9494 14.3783 38.2391C15.74 39.4651 13.7396 41.9553 11.0964 39.2749C10.3737 38.542 10.0956 37.6745 10 36.6911V33.2423C10 31.7992 11.1117 30.4815 12.08 29.9513C12.7918 29.5614 14.4889 29.2919 15.3879 29.1576C16.4968 28.992 15.8855 29.0558 16.9656 26.7315C17.577 25.4159 17.6732 26.3529 15.7208 23.42C15.2713 22.7448 15.0781 22.1102 15.0781 21.133C15.0781 19.2494 16.328 18.2718 17.2998 17.2999C18.4567 16.143 19.2377 15.0782 21.3281 15.0782C22.8276 15.0782 23.783 15.9665 24.9812 16.7962C26.3317 17.7311 25.0712 17.4797 28.6226 16.2205C29.2885 15.9844 29.0357 15.8573 29.3442 14.3053C29.5028 13.5072 29.5849 12.7866 29.9173 12.1443C30.4285 11.1569 31.7663 10 33.2419 10H36.5493C37.9878 10.1201 39.2255 10.5771 40.0486 12.0801C40.4385 12.7919 40.708 14.489 40.8423 15.388C41.0218 16.5904 41.0561 15.8547 43.2691 16.965C44.5459 17.6057 43.7568 17.6003 46.5798 15.7209C47.1188 15.3621 47.8165 15.0782 48.6714 15.0782L48.6719 15.0779ZM38.5157 24.9413C38.5157 28.7412 31.0246 29.9137 35.0232 33.6095C35.2732 33.8407 35.4071 33.8922 35.661 34.1434C36.589 35.0617 37.1744 36.0741 38.4179 36.0741C39.2962 36.0741 39.6914 35.5332 40.1511 35.0731C41.3642 33.8591 43.3329 31.2889 44.6677 31.2889C47.5583 31.2889 47.402 33.4694 47.402 35.2929C47.402 37.5924 46.3427 40.2315 45.1002 41.878C43.723 43.7027 42.2451 44.9221 40.1112 45.8735C38.7651 46.4735 36.9949 46.9142 35.0974 46.9142C34.2258 46.9142 34.6254 46.6828 33.0856 46.9532C30.9905 47.3213 29.6543 49.2026 27.9437 50.8934C27.6777 51.1565 27.6225 51.2365 27.397 51.5188C27.2101 51.753 27.038 51.898 26.8209 52.1146C26.0365 52.8977 25.2913 53.6104 24.524 54.4076C23.7257 55.237 23.3455 55.7411 22.2839 56.7574C21.2792 57.7193 19.6668 56.6978 20.1923 55.3539L23.5007 51.8219C23.9333 51.3919 24.191 51.031 24.6235 50.601C25.5682 49.6618 26.5623 48.7401 27.4112 47.7246C29.1908 45.5954 31.4059 44.2743 34.3158 44.2777C36.6266 44.2805 37.9735 44.1706 40.012 43.0403C43.1334 41.3093 44.8627 38.1516 44.8627 34.1214C44.4851 34.2223 44.3149 34.522 44.057 34.7806C41.8872 36.9562 40.3174 39.2833 37.3069 38.5524C35.7002 38.1625 34.7606 36.959 33.7545 35.9526C31.9764 34.1745 31.2888 33.7343 31.2888 31.2894C31.2888 29.4039 33.148 27.903 34.4879 26.5784L35.7809 25.1371C32.368 25.1371 29.365 26.4666 27.5376 29.101C24.4969 33.4843 26.5595 35.552 25.2217 39.0899C24.6657 40.5604 23.6638 41.6006 22.6219 42.6425C22.0935 43.1709 21.638 43.6292 21.1082 44.1562L19.5946 45.7675C18.8895 46.4726 15.4977 50.142 14.964 50.3212C13.7618 50.7251 12.6014 49.3369 13.6361 48.2073C15.8769 45.7605 18.2788 43.4585 20.5702 40.9811C21.654 39.8093 23.1836 38.735 23.1836 36.368C23.1836 35.7183 23.1129 35.411 23.0832 34.9014C23.0255 33.908 23.4221 31.7115 23.7563 30.7884C24.2257 29.492 25.1141 27.7715 26.0877 26.772C26.7191 26.124 26.7506 25.9317 27.6737 25.2331C29.5624 23.8039 32.0152 22.5982 34.7068 22.5982H36.0741C37.4101 22.5982 38.5155 23.6121 38.5155 24.942L38.5157 24.9413Z" fill="#D9D9D9"/>
</g>
<defs>
<filter id="filter0_d_212_95" x="0" y="0" width="70" height="70" filterUnits="userSpaceOnUse" color-interpolation-filters="sRGB">
<feFlood flood-opacity="0" result="BackgroundImageFix"/>
<feColorMatrix in="SourceAlpha" type="matrix" values="0 0 0 0 0 0 0 0 0 0 0 0 0 0 0 0 0 0 127 0" result="hardAlpha"/>
<feOffset/>
<feGaussianBlur stdDeviation="5"/>
<feComposite in2="hardAlpha" operator="out"/>
<feColorMatrix type="matrix" values="0 0 0 0 1 0 0 0 0 1 0 0 0 0 1 0 0 0 1 0"/>
<feBlend mode="normal" in2="BackgroundImageFix" result="effect1_dropShadow_212_95"/>
<feBlend mode="normal" in="SourceGraphic" in2="effect1_dropShadow_212_95" result="shape"/>
</filter>
</defs>
</svg>
