<svg width="50" height="50" viewBox="0 0 50 50" fill="none" xmlns="http://www.w3.org/2000/svg">
<path fill-rule="evenodd" clip-rule="evenodd" d="M38.6719 5.07793C40.7623 5.07793 41.5433 6.14278 42.7002 7.29972C43.8571 8.45665 44.9219 9.2376 44.9219 11.3281C44.9219 12.8276 44.0336 13.783 43.204 14.9812C42.269 16.3318 42.5204 15.0712 43.7796 18.6227C44.0157 19.2886 44.1428 19.0358 45.6947 19.3443C46.4928 19.5029 47.2135 19.5851 47.8557 19.9174C49.4118 20.723 49.8789 21.9894 50 23.4597V26.7577C50 28.2008 48.8883 29.5185 47.92 30.0487C47.2081 30.4386 45.5111 30.7081 44.6121 30.8424C43.4097 31.0219 44.1454 31.0563 43.0351 33.2692C42.4752 34.3849 42.4817 34.0013 43.1638 34.961C44.1547 36.3555 44.9219 37.165 44.9219 38.867C44.9219 40.7506 43.672 41.7282 42.7002 42.7001C41.5433 43.857 40.7623 44.9218 38.6719 44.9218C37.1724 44.9218 36.217 44.0335 35.0188 43.2038C33.6683 42.2689 34.9288 42.5203 31.3774 43.7795C30.7115 44.0156 30.9643 44.1427 30.6558 45.6947C30.4953 46.5018 30.4172 47.2016 30.0815 47.8548C29.2818 49.4113 28.0145 49.8787 26.5433 50H23.2424C21.4172 50 19.5313 48.2173 19.5313 46.3866C19.5313 45.2793 20.9763 44.8272 21.7134 45.5717C22.0604 45.9222 21.9755 46.0593 22.1669 46.4856C22.7532 47.791 24.1075 47.4609 26.172 47.4609C27.3396 47.4609 27.7745 46.966 27.9728 45.9415C28.1629 44.9594 28.2954 44.1133 28.4731 43.1215C28.8161 41.2063 29.648 41.9428 32.5208 40.5286C34.4434 39.5823 34.1115 39.2738 36.8312 41.2936C39.1012 42.9793 39.2144 42.4748 40.8447 40.8445C41.29 40.3994 42.199 39.7084 42.3138 39.0191C42.4951 37.9322 40.5135 35.9932 39.9424 34.8592C39.5189 34.0177 40.1166 33.3578 40.5285 32.5208C40.8841 31.7987 41.1949 30.9855 41.4679 30.1396C42.0937 28.2001 42.3096 28.6213 45.9418 27.973C47.8437 27.6335 47.4607 26.1586 47.4607 23.8278C47.4607 21.7876 45.7384 22.0344 43.1221 21.526C41.197 21.1518 41.9693 20.4054 40.5288 17.4785C40.3601 17.136 40.0879 16.6885 39.9563 16.3896C39.4932 15.3359 40.3467 14.4436 41.2937 13.1683C41.672 12.659 42.442 11.7475 42.3138 10.9802C42.2013 10.3052 39.6942 7.79816 39.0193 7.68567C37.9324 7.50429 35.9934 9.48601 34.8595 10.0571C34.436 10.2702 34.0642 10.2428 33.61 10.0434C32.4318 9.52545 32.0282 9.06759 30.1344 8.53713C29.0659 8.23793 28.6595 8.07464 28.4577 6.89335C27.6474 2.14965 28.1627 2.53862 23.828 2.53862C22.6604 2.53862 22.2255 3.03358 22.0272 4.05808C21.8371 5.04012 21.7046 5.88626 21.5269 6.87804C21.1839 8.7932 20.352 8.05678 17.4792 9.47094C15.5566 10.4173 15.8885 10.7258 13.1688 8.70599C10.8988 7.02022 10.7856 7.5247 9.15533 9.15503C7.40767 10.9027 7.09339 10.995 8.70629 13.1686L10.0573 15.1403C10.4809 15.9818 9.88314 16.6417 9.47122 17.4788C9.14024 18.1512 8.76334 19.0585 8.53743 19.8655C8.23823 20.934 8.07494 21.3404 6.89368 21.5422C2.15006 22.3526 2.53903 21.8372 2.53903 26.172C2.53903 27.1334 2.8459 27.5333 3.51435 27.8334C3.89867 28.006 4.05662 27.9494 4.37832 28.2391C5.74003 29.4651 3.73956 31.9553 1.09639 29.2749C0.373664 28.542 0.0955576 27.6745 -1.20182e-06 26.6911V23.2423C-1.20182e-06 21.7992 1.11167 20.4815 2.08002 19.9513C2.79184 19.5614 4.48894 19.2919 5.38793 19.1576C6.49683 18.992 5.88546 19.0558 6.9656 16.7315C7.57699 15.4159 7.67324 16.3529 5.72078 13.42C5.27128 12.7448 5.07808 12.1102 5.07808 11.133C5.07808 9.24943 6.328 8.27179 7.29982 7.29995C8.45673 6.14302 9.23766 5.07816 11.3281 5.07816C12.8276 5.07816 13.783 5.96651 14.9812 6.79617C16.3317 7.73113 15.0712 7.4797 18.6226 6.22048C19.2885 5.98437 19.0357 5.85726 19.3442 4.30533C19.5028 3.50721 19.5849 2.78657 19.9173 2.14432C20.4285 1.15693 21.7663 0 23.2419 0H26.5493C27.9878 0.120147 29.2255 0.577076 30.0486 2.08007C30.4385 2.7919 30.708 4.48903 30.8423 5.38804C31.0218 6.59044 31.0561 5.85471 33.2691 6.96502C34.5459 7.60565 33.7568 7.60032 36.5798 5.72088C37.1188 5.36206 37.8165 5.07816 38.6714 5.07816L38.6719 5.07793ZM28.5157 14.9413C28.5157 18.7412 21.0246 19.9137 25.0232 23.6095C25.2732 23.8407 25.4071 23.8922 25.661 24.1434C26.589 25.0617 27.1744 26.0741 28.4179 26.0741C29.2962 26.0741 29.6914 25.5332 30.1511 25.0731C31.3642 23.8591 33.3329 21.2889 34.6677 21.2889C37.5583 21.2889 37.402 23.4694 37.402 25.2929C37.402 27.5924 36.3427 30.2315 35.1002 31.878C33.723 33.7027 32.2451 34.9221 30.1112 35.8735C28.7651 36.4735 26.9949 36.9142 25.0974 36.9142C24.2258 36.9142 24.6254 36.6828 23.0856 36.9532C20.9905 37.3213 19.6543 39.2026 17.9437 40.8934C17.6777 41.1565 17.6225 41.2365 17.397 41.5188C17.2101 41.753 17.038 41.898 16.8209 42.1146C16.0365 42.8977 15.2913 43.6104 14.524 44.4076C13.7257 45.237 13.3455 45.7411 12.2839 46.7574C11.2792 47.7193 9.66676 46.6978 10.1923 45.3539L13.5007 41.8219C13.9333 41.3919 14.191 41.031 14.6235 40.601C15.5682 39.6618 16.5623 38.7401 17.4112 37.7246C19.1908 35.5954 21.4059 34.2743 24.3158 34.2777C26.6266 34.2805 27.9735 34.1706 30.012 33.0403C33.1334 31.3093 34.8627 28.1516 34.8627 24.1214C34.4851 24.2223 34.3149 24.522 34.057 24.7806C31.8872 26.9562 30.3174 29.2833 27.3069 28.5524C25.7002 28.1625 24.7606 26.959 23.7545 25.9526C21.9764 24.1745 21.2888 23.7343 21.2888 21.2894C21.2888 19.4039 23.148 17.903 24.4879 16.5784L25.7809 15.1371C22.368 15.1371 19.365 16.4666 17.5376 19.101C14.4969 23.4843 16.5595 25.552 15.2217 29.0899C14.6657 30.5604 13.6638 31.6006 12.6219 32.6425C12.0935 33.1709 11.638 33.6292 11.1082 34.1562L9.59461 35.7675C8.88952 36.4726 5.49766 40.142 4.96396 40.3212C3.76182 40.7251 2.60144 39.3369 3.63612 38.2073C5.87688 35.7605 8.27884 33.4585 10.5702 30.9811C11.654 29.8093 13.1836 28.735 13.1836 26.368C13.1836 25.7183 13.1129 25.411 13.0832 24.9014C13.0255 23.908 13.4221 21.7115 13.7563 20.7884C14.2257 19.492 15.1141 17.7715 16.0877 16.772C16.7191 16.124 16.7506 15.9317 17.6737 15.2331C19.5624 13.8039 22.0152 12.5982 24.7068 12.5982H26.0741C27.4101 12.5982 28.5155 13.6121 28.5155 14.942L28.5157 14.9413Z" fill="#9A9A9A"/>
</svg>
