<svg width="109" height="107" viewBox="0 0 109 107" fill="none" xmlns="http://www.w3.org/2000/svg">
<path fill-rule="evenodd" clip-rule="evenodd" d="M52.8072 102.728H10.0065C8.3046 102.728 6.7561 102.036 5.63249 100.921C4.50888 99.8055 3.81138 98.2687 3.81138 96.5797V54.1181L34.9565 54.1181L27.7424 61.19C27.1374 61.783 27.1374 62.7445 27.7424 63.3376C28.3474 63.9306 29.3282 63.9306 29.9332 63.3376L39.7918 53.6733C40.3968 53.0803 40.3968 52.1188 39.7918 51.5257L29.9332 41.8615C29.3282 41.2684 28.3474 41.2684 27.7424 41.8615C27.1374 42.4545 27.1374 43.416 27.7424 44.0091L34.9565 51.0809H3.81138V9.45034C3.81138 7.76129 4.50888 6.22447 5.63249 5.10934C6.7561 3.99421 8.3046 3.30198 10.0065 3.30198H52.8072V33.2296L45.7354 26.0155C45.1423 25.4105 44.1808 25.4105 43.5878 26.0155C42.9947 26.6204 42.9947 27.6013 43.5878 28.2063L53.252 38.0649C53.8451 38.6699 54.8066 38.6699 55.3996 38.0649L65.0639 28.2063C65.6569 27.6013 65.6569 26.6204 65.0639 26.0155C64.4708 25.4105 63.5093 25.4105 62.9163 26.0155L55.8444 33.2296L55.8444 3.30198H98.6488C100.351 3.30198 101.899 3.99421 103.023 5.10934C104.146 6.22447 104.844 7.76129 104.844 9.45034V51.0809H73.6988L80.9129 44.0091C81.5179 43.416 81.5179 42.4545 80.9129 41.8615C80.308 41.2684 79.3271 41.2684 78.7221 41.8615L68.8635 51.5257C68.2585 52.1188 68.2585 53.0803 68.8635 53.6733L78.7221 63.3376C79.3271 63.9306 80.308 63.9306 80.9129 63.3376C81.5179 62.7445 81.5179 61.783 80.9129 61.19L73.6988 54.1181L104.844 54.1181V96.5797C104.844 98.2687 104.146 99.8055 103.023 100.921C101.899 102.036 100.351 102.728 98.6488 102.728H55.8444L55.8444 71.9719L62.9163 79.186C63.5093 79.791 64.4708 79.791 65.0639 79.186C65.6569 78.581 65.6569 77.6002 65.0639 76.9952L55.3996 67.1366C54.8066 66.5316 53.8451 66.5316 53.252 67.1366L43.5878 76.9952C42.9947 77.6002 42.9947 78.581 43.5878 79.186C44.1808 79.791 45.1423 79.791 45.7354 79.186L52.8072 71.9719V102.728ZM10.0065 106.03H98.6488C101.269 106.03 103.65 104.967 105.375 103.255C107.1 101.543 108.171 99.1801 108.171 96.5796V9.45027C108.171 6.84966 107.1 4.48682 105.375 2.77473C103.65 1.06264 101.269 0 98.6488 0H10.0065C7.38611 0 5.00532 1.06264 3.28021 2.77473C1.55511 4.48682 0.484375 6.84973 0.484375 9.45027V96.5796C0.484375 99.1802 1.55511 101.543 3.28021 103.255C5.00532 104.967 7.38618 106.03 10.0065 106.03ZM57.313 45.3887C52.0995 42.9191 45.9559 47.0005 45.9559 52.823H45.9564C45.9564 53.2503 46.0869 54.2389 46.1818 54.64C47.9678 62.1792 58.0327 63.35 61.3458 56.1659C63.2316 52.0763 61.2852 47.2705 57.313 45.3887ZM46.0317 60.9297C43.6272 58.4894 42.7306 55.8665 42.7306 52.3115H42.7311C42.7311 48.0646 45.5486 44.2902 49.2142 42.4216C52.0995 40.951 55.9865 41.0396 58.8932 42.4555C60.1578 43.0715 61.0766 43.7706 62.0079 44.7158C65.3629 48.1207 66.3134 53.3747 64.2351 57.7686C60.8658 64.8917 51.5719 66.5523 46.0317 60.9297Z" fill="#9A9A9A"/>
</svg>
