<svg width="65" height="65" viewBox="0 0 65 65" fill="none" xmlns="http://www.w3.org/2000/svg">
<g filter="url(#filter0_d_211_60)">
<path fill-rule="evenodd" clip-rule="evenodd" d="M52 32.5C52 43.2696 43.2696 52 32.5 52C21.7304 52 13 43.2696 13 32.5C13 21.7304 21.7304 13 32.5 13C43.2696 13 52 21.7304 52 32.5ZM55 32.5C55 44.9264 44.9264 55 32.5 55C20.0736 55 10 44.9264 10 32.5C10 20.0736 20.0736 10 32.5 10C44.9264 10 55 20.0736 55 32.5ZM23.4246 25.5754L25.5459 23.4541L32.9706 30.8787L40.3952 23.4541L42.5165 25.5754L35.0919 33L42.5165 40.4246L40.3952 42.5459L32.9706 35.1213L25.5459 42.5459L23.4246 40.4246L30.8492 33L23.4246 25.5754Z" fill="#D9D9D9"/>
</g>
<defs>
<filter id="filter0_d_211_60" x="0" y="0" width="65" height="65" filterUnits="userSpaceOnUse" color-interpolation-filters="sRGB">
<feFlood flood-opacity="0" result="BackgroundImageFix"/>
<feColorMatrix in="SourceAlpha" type="matrix" values="0 0 0 0 0 0 0 0 0 0 0 0 0 0 0 0 0 0 127 0" result="hardAlpha"/>
<feOffset/>
<feGaussianBlur stdDeviation="5"/>
<feComposite in2="hardAlpha" operator="out"/>
<feColorMatrix type="matrix" values="0 0 0 0 1 0 0 0 0 1 0 0 0 0 1 0 0 0 1 0"/>
<feBlend mode="normal" in2="BackgroundImageFix" result="effect1_dropShadow_211_60"/>
<feBlend mode="normal" in="SourceGraphic" in2="effect1_dropShadow_211_60" result="shape"/>
</filter>
</defs>
</svg>
