<svg width="42" height="36" viewBox="0 0 42 36" fill="none" xmlns="http://www.w3.org/2000/svg">
<path fill-rule="evenodd" clip-rule="evenodd" d="M0 0.999999C0 0.447714 0.447715 0 1 0H40.8065C41.3587 0 41.8065 0.447715 41.8065 1V4.80645C41.8065 5.35874 41.3587 5.80645 40.8065 5.80645H1C0.447716 5.80645 0 5.35874 0 4.80645V0.999999ZM0 16.0965C0 15.5442 0.447715 15.0965 1 15.0965H40.8065C41.3587 15.0965 41.8065 15.5442 41.8065 16.0965V19.903C41.8065 20.4552 41.3587 20.903 40.8065 20.903H1C0.447716 20.903 0 20.4552 0 19.903V16.0965ZM1 30.194C0.447715 30.194 0 30.6418 0 31.194V35.0005C0 35.5528 0.447716 36.0005 1 36.0005H40.8065C41.3587 36.0005 41.8065 35.5528 41.8065 35.0005V31.194C41.8065 30.6418 41.3587 30.194 40.8065 30.194H1Z" fill="#9A9A9A"/>
</svg>
