<svg width="62" height="56" viewBox="0 0 62 56" fill="none" xmlns="http://www.w3.org/2000/svg">
<g filter="url(#filter0_d_211_56)">
<path fill-rule="evenodd" clip-rule="evenodd" d="M10 11C10 10.4477 10.4477 10 11 10H50.8065C51.3587 10 51.8065 10.4477 51.8065 11V14.8065C51.8065 15.3587 51.3587 15.8065 50.8065 15.8065H11C10.4477 15.8065 10 15.3587 10 14.8065V11ZM10 26.0965C10 25.5442 10.4477 25.0965 11 25.0965H50.8065C51.3587 25.0965 51.8065 25.5442 51.8065 26.0965V29.903C51.8065 30.4552 51.3587 30.903 50.8065 30.903H11C10.4477 30.903 10 30.4552 10 29.903V26.0965ZM11 40.194C10.4477 40.194 10 40.6418 10 41.194V45.0005C10 45.5528 10.4477 46.0005 11 46.0005H50.8065C51.3587 46.0005 51.8065 45.5528 51.8065 45.0005V41.194C51.8065 40.6418 51.3587 40.194 50.8065 40.194H11Z" fill="#D9D9D9"/>
</g>
<defs>
<filter id="filter0_d_211_56" x="0" y="0" width="61.8064" height="56.0005" filterUnits="userSpaceOnUse" color-interpolation-filters="sRGB">
<feFlood flood-opacity="0" result="BackgroundImageFix"/>
<feColorMatrix in="SourceAlpha" type="matrix" values="0 0 0 0 0 0 0 0 0 0 0 0 0 0 0 0 0 0 127 0" result="hardAlpha"/>
<feOffset/>
<feGaussianBlur stdDeviation="5"/>
<feComposite in2="hardAlpha" operator="out"/>
<feColorMatrix type="matrix" values="0 0 0 0 1 0 0 0 0 1 0 0 0 0 1 0 0 0 1 0"/>
<feBlend mode="normal" in2="BackgroundImageFix" result="effect1_dropShadow_211_56"/>
<feBlend mode="normal" in="SourceGraphic" in2="effect1_dropShadow_211_56" result="shape"/>
</filter>
</defs>
</svg>
