<svg width="39" height="43" viewBox="0 0 39 43" fill="none" xmlns="http://www.w3.org/2000/svg">
<path d="M3.92677 30.1257C3.92677 25.0625 3.92677 19.993 3.92677 14.9341C6.2235 16.1294 8.51166 17.5177 10.7456 18.7829L17.5373 22.6585V37.8502C16.3031 37.2078 15.3937 36.7086 14.1867 35.9966C10.9939 34.1131 6.90256 32.0859 3.92677 30.1257ZM21.4634 37.8503V22.6586L28.2557 18.7835C30.5025 17.5188 32.7321 16.1531 35.074 14.9342V30.1258L21.4634 37.8503ZM19.3697 19.0539C18.9823 19.0107 7.24659 11.9088 6.02087 11.5868L19.3697 3.86221L32.98 11.5868C31.6582 11.934 19.9716 19.121 19.3697 19.0539ZM39 30.1258V12.8743C39 10.3817 37.419 9.33139 35.6875 8.40836C33.4216 7.20027 21.5798 0 20.1547 0C17.2036 0 16.7864 0.755629 13.5977 2.56152L3.65212 8.22661C2.45896 8.89693 0.000741041 9.96904 0.000741041 12.3593L0 28.6945C0.0249587 33.0472 0.554592 33.1397 8.54847 37.4237C10.1932 38.305 17.8058 43 19.1078 43C20.2748 43 21.3429 42.5914 22.168 42.1482C23.0782 41.6592 23.9426 41.1576 24.8185 40.6358L35.2551 34.6813C36.2542 34.1341 37.0189 33.8169 37.7643 33.03C38.451 32.3051 39 31.434 39 30.1258Z" fill="#00B2CA"/>
</svg>
