<svg width="45" height="45" viewBox="0 0 45 45" fill="none" xmlns="http://www.w3.org/2000/svg">
<path fill-rule="evenodd" clip-rule="evenodd" d="M42 22.5C42 33.2696 33.2696 42 22.5 42C11.7304 42 3 33.2696 3 22.5C3 11.7304 11.7304 3 22.5 3C33.2696 3 42 11.7304 42 22.5ZM45 22.5C45 34.9264 34.9264 45 22.5 45C10.0736 45 0 34.9264 0 22.5C0 10.0736 10.0736 0 22.5 0C34.9264 0 45 10.0736 45 22.5ZM13.4246 15.5754L15.5459 13.4541L22.9706 20.8787L30.3952 13.4541L32.5165 15.5754L25.0919 23L32.5165 30.4246L30.3952 32.5459L22.9706 25.1213L15.5459 32.5459L13.4246 30.4246L20.8492 23L13.4246 15.5754Z" fill="#9A9A9A"/>
</svg>
