<svg width="29" height="24" viewBox="0 0 29 24" fill="none" xmlns="http://www.w3.org/2000/svg">
<path fill-rule="evenodd" clip-rule="evenodd" d="M28 8.04348V19.7826C28 21.7276 26.4233 23.3043 24.4783 23.3043H4.52174C2.57674 23.3043 1 21.7276 1 19.7826V4.52174C1 2.57674 2.57674 1 4.52174 1H9.21739C11.1624 1 12.7391 2.57674 12.7391 4.52174H24.4783C26.4233 4.52174 28 6.09847 28 8.04348ZM4.52174 2.76087C3.54924 2.76087 2.76087 3.54924 2.76087 4.52174V19.7826C2.76087 20.7551 3.54924 21.5435 4.52174 21.5435H24.4783C25.4508 21.5435 26.2391 20.7551 26.2391 19.7826V8.04348C26.2391 7.07098 25.4508 6.28261 24.4783 6.28261H12.7391C11.7666 6.28261 10.9783 5.49424 10.9783 4.52174C10.9783 3.54924 10.1899 2.76087 9.21739 2.76087H4.52174Z" fill="#129FB3"/>
<path d="M12.7391 4.52174H12.2391V5.02174H12.7391V4.52174ZM28.5 19.7826V8.04348H27.5V19.7826H28.5ZM24.4783 23.8043C26.6994 23.8043 28.5 22.0038 28.5 19.7826H27.5C27.5 21.4515 26.1471 22.8043 24.4783 22.8043V23.8043ZM4.52174 23.8043H24.4783V22.8043H4.52174V23.8043ZM0.5 19.7826C0.5 22.0038 2.30059 23.8043 4.52174 23.8043V22.8043C2.85288 22.8043 1.5 21.4515 1.5 19.7826H0.5ZM0.5 4.52174V19.7826H1.5V4.52174H0.5ZM4.52174 0.5C2.30059 0.5 0.5 2.30059 0.5 4.52174H1.5C1.5 2.85288 2.85288 1.5 4.52174 1.5V0.5ZM9.21739 0.5H4.52174V1.5H9.21739V0.5ZM13.2391 4.52174C13.2391 2.30059 11.4385 0.5 9.21739 0.5V1.5C10.8863 1.5 12.2391 2.85288 12.2391 4.52174H13.2391ZM24.4783 4.02174H12.7391V5.02174H24.4783V4.02174ZM28.5 8.04348C28.5 5.82233 26.6994 4.02174 24.4783 4.02174V5.02174C26.1471 5.02174 27.5 6.37462 27.5 8.04348H28.5ZM3.26087 4.52174C3.26087 3.82538 3.82538 3.26087 4.52174 3.26087V2.26087C3.2731 2.26087 2.26087 3.2731 2.26087 4.52174H3.26087ZM3.26087 19.7826V4.52174H2.26087V19.7826H3.26087ZM4.52174 21.0435C3.82538 21.0435 3.26087 20.479 3.26087 19.7826H2.26087C2.26087 21.0313 3.27309 22.0435 4.52174 22.0435V21.0435ZM24.4783 21.0435H4.52174V22.0435H24.4783V21.0435ZM25.7391 19.7826C25.7391 20.479 25.1746 21.0435 24.4783 21.0435V22.0435C25.7269 22.0435 26.7391 21.0312 26.7391 19.7826H25.7391ZM25.7391 8.04348V19.7826H26.7391V8.04348H25.7391ZM24.4783 6.78261C25.1746 6.78261 25.7391 7.34712 25.7391 8.04348H26.7391C26.7391 6.79483 25.7269 5.78261 24.4783 5.78261V6.78261ZM12.7391 6.78261H24.4783V5.78261H12.7391V6.78261ZM10.4783 4.52174C10.4783 5.77038 11.4905 6.78261 12.7391 6.78261V5.78261C12.0428 5.78261 11.4783 5.2181 11.4783 4.52174H10.4783ZM9.21739 3.26087C9.91375 3.26087 10.4783 3.82538 10.4783 4.52174H11.4783C11.4783 3.2731 10.466 2.26087 9.21739 2.26087V3.26087ZM4.52174 3.26087H9.21739V2.26087H4.52174V3.26087Z" fill="#14A1B5"/>
</svg>
