<svg width="45" height="45" viewBox="0 0 45 45" fill="none" xmlns="http://www.w3.org/2000/svg">
<path fill-rule="evenodd" clip-rule="evenodd" d="M42 22.5C42 33.2696 33.2696 42 22.5 42C11.7304 42 3 33.2696 3 22.5C3 11.7304 11.7304 3 22.5 3C33.2696 3 42 11.7304 42 22.5ZM45 22.5C45 34.9264 34.9264 45 22.5 45C10.0736 45 0 34.9264 0 22.5C0 10.0736 10.0736 0 22.5 0C34.9264 0 45 10.0736 45 22.5ZM23.0807 9.81314C22.5877 10.3552 22.3412 11.0945 22.3412 12.0308C22.3412 12.5975 22.5261 13.0719 22.8958 13.4538C23.2779 13.8234 23.777 14.0082 24.3933 14.0082C25.1574 14.0082 25.7798 13.731 26.2605 13.1766C26.7535 12.6222 27 11.9138 27 11.0513C27 10.4353 26.809 9.9425 26.4269 9.5729C26.0571 9.19096 25.5703 9 24.9664 9C24.2022 9 23.5737 9.27105 23.0807 9.81314ZM16 22.1581L16.4437 23.1561C17.1955 22.5893 18.0521 22.0595 19.0134 21.5667C19.4078 21.3696 19.7036 21.271 19.9008 21.271C20.1843 21.271 20.326 21.4312 20.326 21.7515C20.326 22.4168 20.0179 23.8522 19.4017 26.0575L18.163 30.4559C17.7686 31.8973 17.5714 33.0801 17.5714 34.0041C17.5714 34.7064 17.6947 35.2115 17.9412 35.5195C18.2 35.8398 18.5636 36 19.0319 36C19.3401 36 19.6728 35.9322 20.0303 35.7967C20.5479 35.6242 21.3182 35.2177 22.3412 34.577L26.1681 32.0267L25.6689 31.0472C23.8818 32.23 22.828 32.8214 22.5076 32.8214C22.1625 32.8214 21.9899 32.6119 21.9899 32.193C21.9899 31.3799 22.4521 29.4333 23.3765 26.3532L23.9681 24.3573C24.7692 21.6345 25.1697 19.8357 25.1697 18.961C25.1697 18.5051 25.0588 18.154 24.837 17.9076C24.6151 17.6489 24.3378 17.5195 24.005 17.5195C23.4874 17.5195 22.7109 17.7782 21.6756 18.2957C20.8745 18.7023 18.9826 19.9897 16 22.1581Z" fill="#9A9A9A"/>
</svg>
