<svg width="65" height="65" viewBox="0 0 65 65" fill="none" xmlns="http://www.w3.org/2000/svg">
<g filter="url(#filter0_d_211_53)">
<path fill-rule="evenodd" clip-rule="evenodd" d="M52 32.5C52 43.2696 43.2696 52 32.5 52C21.7304 52 13 43.2696 13 32.5C13 21.7304 21.7304 13 32.5 13C43.2696 13 52 21.7304 52 32.5ZM55 32.5C55 44.9264 44.9264 55 32.5 55C20.0736 55 10 44.9264 10 32.5C10 20.0736 20.0736 10 32.5 10C44.9264 10 55 20.0736 55 32.5ZM33.0807 19.8131C32.5877 20.3552 32.3412 21.0945 32.3412 22.0308C32.3412 22.5975 32.5261 23.0719 32.8958 23.4538C33.2779 23.8234 33.777 24.0082 34.3933 24.0082C35.1574 24.0082 35.7798 23.731 36.2605 23.1766C36.7535 22.6222 37 21.9138 37 21.0513C37 20.4353 36.809 19.9425 36.4269 19.5729C36.0571 19.191 35.5703 19 34.9664 19C34.2022 19 33.5737 19.271 33.0807 19.8131ZM26 32.1581L26.4437 33.1561C27.1955 32.5893 28.0521 32.0595 29.0134 31.5667C29.4078 31.3696 29.7036 31.271 29.9008 31.271C30.1843 31.271 30.326 31.4312 30.326 31.7515C30.326 32.4168 30.0179 33.8522 29.4017 36.0575L28.163 40.4559C27.7686 41.8973 27.5714 43.0801 27.5714 44.0041C27.5714 44.7064 27.6947 45.2115 27.9412 45.5195C28.2 45.8398 28.5636 46 29.0319 46C29.3401 46 29.6728 45.9322 30.0303 45.7967C30.5479 45.6242 31.3182 45.2177 32.3412 44.577L36.1681 42.0267L35.6689 41.0472C33.8818 42.23 32.828 42.8214 32.5076 42.8214C32.1625 42.8214 31.9899 42.6119 31.9899 42.193C31.9899 41.3799 32.4521 39.4333 33.3765 36.3532L33.9681 34.3573C34.7692 31.6345 35.1697 29.8357 35.1697 28.961C35.1697 28.5051 35.0588 28.154 34.837 27.9076C34.6151 27.6489 34.3378 27.5195 34.005 27.5195C33.4874 27.5195 32.7109 27.7782 31.6756 28.2957C30.8745 28.7023 28.9826 29.9897 26 32.1581Z" fill="#D9D9D9"/>
</g>
<defs>
<filter id="filter0_d_211_53" x="0" y="0" width="65" height="65" filterUnits="userSpaceOnUse" color-interpolation-filters="sRGB">
<feFlood flood-opacity="0" result="BackgroundImageFix"/>
<feColorMatrix in="SourceAlpha" type="matrix" values="0 0 0 0 0 0 0 0 0 0 0 0 0 0 0 0 0 0 127 0" result="hardAlpha"/>
<feOffset/>
<feGaussianBlur stdDeviation="5"/>
<feComposite in2="hardAlpha" operator="out"/>
<feColorMatrix type="matrix" values="0 0 0 0 1 0 0 0 0 1 0 0 0 0 1 0 0 0 1 0"/>
<feBlend mode="normal" in2="BackgroundImageFix" result="effect1_dropShadow_211_53"/>
<feBlend mode="normal" in="SourceGraphic" in2="effect1_dropShadow_211_53" result="shape"/>
</filter>
</defs>
</svg>
