<svg width="45" height="45" viewBox="0 0 45 45" fill="none" xmlns="http://www.w3.org/2000/svg">
<path fill-rule="evenodd" clip-rule="evenodd" d="M42 22.5C42 33.2696 33.2696 42 22.5 42C11.7304 42 3 33.2696 3 22.5C3 11.7304 11.7304 3 22.5 3C33.2696 3 42 11.7304 42 22.5ZM45 22.5C45 34.9264 34.9264 45 22.5 45C10.0736 45 0 34.9264 0 22.5C0 10.0736 10.0736 0 22.5 0C34.9264 0 45 10.0736 45 22.5ZM22.4704 31.6667L22.5685 31.5685L22.6208 31.6208L35.5165 18.4543L33.3952 16.333L22.5132 27.4435L11.1965 15.9995L9.07518 18.1208L22.4704 31.6667Z" fill="#9A9A9A"/>
</svg>
