<svg width="43" height="44" viewBox="0 0 43 44" fill="none" xmlns="http://www.w3.org/2000/svg">
<path fill-rule="evenodd" clip-rule="evenodd" d="M7.91567 8.94885C7.35709 9.46343 6.93188 9.85515 6.93188 10.6562C6.93188 11.0292 7.13305 11.2506 7.32551 11.4625C7.36476 11.5057 7.40365 11.5485 7.44039 11.5921C7.66284 11.8559 7.84103 12.0853 8.01172 12.3728C9.29624 14.5365 8.50957 17.3278 6.42772 18.3989C6.00416 18.6166 5.86745 18.6852 5.39766 18.8051C5.11966 18.876 4.90978 18.8834 4.6904 18.8912C4.51443 18.8974 4.33234 18.9038 4.10406 18.9434C2.79816 19.17 2.83959 20.4949 2.88966 22.0961C2.89967 22.4163 2.91003 22.7475 2.91003 23.0832C2.91003 24.6013 3.89244 24.6785 4.76358 24.747C5.01721 24.767 5.2614 24.7862 5.46917 24.84C8.38748 25.5954 9.84821 29.2889 7.39851 32.0826C6.40666 33.2136 7.12676 33.9068 7.995 34.7427C8.12322 34.8661 8.25467 34.9926 8.38431 35.1242C8.4567 35.1976 8.54397 35.2942 8.64213 35.4028C9.07601 35.8827 9.72279 36.5982 10.239 36.5982C10.8948 36.5982 11.0547 36.4453 11.3639 36.1497C11.5361 35.9851 11.7546 35.7762 12.1308 35.5247C14.1115 34.2015 17.0397 34.9168 18.1353 37.1107C18.5952 38.0316 18.5984 38.2764 18.6034 38.6633C18.606 38.8595 18.609 39.0922 18.6723 39.4681C18.8955 40.7934 20.201 40.7514 21.7788 40.7005C22.0943 40.6904 22.4206 40.6799 22.7514 40.6799C24.2472 40.6799 24.3233 39.6828 24.3908 38.7987C24.4105 38.5413 24.4294 38.2935 24.4824 38.0827C24.5899 37.6548 24.6531 37.5295 24.8052 37.2278C24.8236 37.1913 24.8433 37.1523 24.8645 37.1099C26.0727 34.6903 29.3008 34.0307 31.6189 36.1246C32.7329 37.1311 33.4161 36.4003 34.2397 35.5194C34.3614 35.3893 34.4862 35.2558 34.6159 35.1242C34.6882 35.0507 34.7834 34.9621 34.8904 34.8625C35.3633 34.4222 36.0683 33.7658 36.0683 33.2419C36.0683 32.6178 36.0163 32.5585 35.7236 32.2243C35.6757 32.1696 35.6214 32.1076 35.5598 32.0345C33.5392 29.639 34.2132 26.4415 36.5725 25.2277C37.443 24.7798 37.7619 24.7676 38.1829 24.7514C38.3774 24.7439 38.5936 24.7356 38.8961 24.6832C40.202 24.4566 40.1606 23.1317 40.1105 21.5305C40.1005 21.2103 40.0901 20.8791 40.0901 20.5434C40.0901 19.1411 39.4113 19.0463 38.4359 18.9101C37.8861 18.8334 37.2421 18.7435 36.5725 18.3989C34.246 17.2019 33.5028 13.937 35.6017 11.5439C36.5934 10.4134 35.8733 9.72 35.0054 8.88424C34.8771 8.7607 34.7456 8.63406 34.6159 8.50243C34.5435 8.42897 34.4562 8.33243 34.358 8.22384C33.9242 7.74387 33.2774 7.02839 32.7612 7.02839C32.1462 7.02839 32.0878 7.08111 31.7585 7.37822C31.7046 7.42681 31.6435 7.48195 31.5715 7.54447C29.2226 9.58511 26.0656 8.92147 24.8645 6.51673C24.4231 5.63321 24.411 5.3096 24.3951 4.8823C24.3878 4.68495 24.3796 4.46548 24.3279 4.15851C24.1047 2.83319 22.7992 2.87523 21.2214 2.92605C20.9059 2.93621 20.5795 2.94672 20.2488 2.94672C18.7556 2.94672 18.6819 3.92897 18.6168 4.79604C18.5965 5.06676 18.577 5.32626 18.5154 5.54112C18.3913 5.97339 18.2795 6.24165 18.1065 6.57728C16.9093 8.89621 13.7128 9.60756 11.3812 7.50156C10.2673 6.49508 9.58404 7.22591 8.76052 8.10674C8.63879 8.23694 8.51401 8.37041 8.38431 8.50203C8.22232 8.66635 8.06428 8.81195 7.91567 8.94885ZM6.70228 6.03257C7.75253 4.9482 8.63739 4.0346 10.4176 4.0346L10.418 4.03581C10.977 4.03581 11.7408 4.25675 12.1478 4.45685C12.7126 4.73439 12.8274 4.84241 13.1555 5.15118C13.2114 5.20376 13.2734 5.26215 13.345 5.3282C14.2683 6.1807 15.5611 5.82943 15.7611 4.5603C15.7876 4.39298 15.786 4.22986 15.7845 4.06549C15.7828 3.88912 15.7811 3.71132 15.814 3.52535C16.1317 1.72891 17.871 0.0443528 19.6237 0.0443528C20.1085 0.0443528 20.5699 0.0322006 21.0098 0.0206181C23.5252 -0.0456182 25.3331 -0.0932243 26.7385 2.25702C27.0513 2.78032 27.1289 3.40872 27.2009 3.9926C27.3235 4.98539 27.4301 5.84948 28.6504 5.84948C28.9736 5.84948 29.3121 5.57799 29.7279 5.24459C30.6126 4.53514 31.8469 3.54536 34.026 4.29445C34.9621 4.61613 35.5976 5.2876 36.257 5.98426C36.3932 6.12821 36.5305 6.27324 36.6716 6.41648C36.8026 6.54943 36.9369 6.68072 37.0716 6.81248C38.0325 7.75209 39.0178 8.71552 39.0178 10.4753C39.0178 12.0198 38.3858 12.7936 37.8818 13.4106C37.4596 13.9275 37.1272 14.3345 37.3311 14.9925C37.4958 15.5242 37.7827 15.8634 38.424 15.9757C38.5735 16.0018 38.7445 16.0111 38.9331 16.0214C39.6302 16.0593 40.5674 16.1103 41.5442 17.072C42.191 17.7088 42.95 18.6679 42.95 19.9086V23.5368C42.95 25.3188 41.6038 26.8798 40.2822 27.3598C39.7184 27.5646 39.2341 27.6005 38.8247 27.6309C38.1031 27.6845 37.6139 27.7208 37.3311 28.6341C37.1383 29.2561 37.433 29.7589 37.7874 30.1362C38.2367 30.6146 38.3809 30.7947 38.6606 31.427C39.2691 32.8032 39.0502 34.4405 38.2023 35.5893C37.825 36.101 35.4843 38.4684 34.9726 38.8421C33.8434 39.667 32.2029 39.833 30.8524 39.1697C30.2876 38.8922 30.1728 38.7842 29.8447 38.4754C29.7888 38.4228 29.7267 38.3644 29.6552 38.2984C28.7322 37.4463 27.4367 37.7976 27.2391 39.0663C27.2052 39.2833 27.2034 39.4511 27.2016 39.6166C27.1981 39.9449 27.1946 40.2644 26.9412 40.9409C26.4777 42.1792 24.9107 43.5818 23.3765 43.5818C22.8917 43.5818 22.4302 43.594 21.9904 43.6056C19.475 43.6718 17.6671 43.7194 16.2617 41.3692C15.861 40.6991 15.8277 40.1506 15.796 39.628C15.7848 39.4435 15.7738 39.2622 15.7468 39.0799C15.556 37.7883 14.2553 37.3737 13.3422 38.2964C12.1991 39.4516 10.6214 39.8983 8.97422 39.3321C8.56528 39.1918 8.23891 39.0021 7.92559 38.7639C7.49017 38.4331 4.97726 35.9085 4.71214 35.4947C3.41063 33.4637 3.94364 31.7306 5.23448 30.0681C5.26941 30.023 5.3042 29.9796 5.33825 29.937C5.6419 29.5577 5.88635 29.2523 5.64618 28.5644C5.44744 27.995 5.09737 27.7199 4.49917 27.6377C4.16187 27.5913 3.9369 27.5801 3.75003 27.5707C3.40804 27.5535 3.19368 27.5428 2.65202 27.3353C1.43626 26.8698 0.0498047 25.2746 0.0498047 23.7176V19.9082C0.0498047 18.6675 0.808816 17.7084 1.45562 17.0716C2.42096 16.1213 3.33456 16.0575 4.07607 16.0058C4.84172 15.9523 5.42388 15.9117 5.69004 14.9211C5.86236 14.2794 5.57155 13.9337 5.17726 13.4649C4.90797 13.1447 4.59041 12.7672 4.33915 12.1988C3.18193 9.58118 4.8329 7.92042 6.15794 6.58753C6.23085 6.51418 6.30277 6.44183 6.37319 6.37037C6.48538 6.25651 6.5947 6.14364 6.70228 6.03257ZM24.4205 15.2217C19.7977 13.0319 14.3503 16.6508 14.3503 21.8136H14.3507C14.3507 22.1925 14.4664 23.0691 14.5506 23.4247C16.1342 30.1097 25.0586 31.1478 27.9963 24.7777C29.6684 21.1515 27.9425 16.8902 24.4205 15.2217ZM14.4174 29.0017C12.2854 26.838 11.4904 24.5122 11.4904 21.3601H11.4908C11.4908 17.5944 13.9891 14.2477 17.2393 12.5908C19.7977 11.2868 23.2443 11.3654 25.8216 12.6209C26.9429 13.167 27.7576 13.787 28.5834 14.625C31.5582 17.6441 32.401 22.3028 30.5582 26.1988C27.5707 32.5148 19.3299 33.9872 14.4174 29.0017Z" fill="#9A9A9A"/>
</svg>
