<svg width="63" height="64" viewBox="0 0 63 64" fill="none" xmlns="http://www.w3.org/2000/svg">
<g filter="url(#filter0_d_211_49)">
<path fill-rule="evenodd" clip-rule="evenodd" d="M17.9157 18.9489C17.3571 19.4634 16.9319 19.8552 16.9319 20.6562C16.9319 21.0292 17.1331 21.2506 17.3255 21.4625C17.3648 21.5057 17.4036 21.5485 17.4404 21.5921C17.6628 21.8559 17.841 22.0853 18.0117 22.3728C19.2962 24.5365 18.5096 27.3278 16.4277 28.3989C16.0042 28.6166 15.8674 28.6852 15.3977 28.8051C15.1197 28.876 14.9098 28.8834 14.6904 28.8912C14.5144 28.8974 14.3323 28.9038 14.1041 28.9434C12.7982 29.17 12.8396 30.4949 12.8897 32.0961C12.8997 32.4163 12.91 32.7475 12.91 33.0832C12.91 34.6013 13.8924 34.6785 14.7636 34.747C15.0172 34.767 15.2614 34.7862 15.4692 34.84C18.3875 35.5954 19.8482 39.2889 17.3985 42.0826C16.4067 43.2136 17.1268 43.9068 17.995 44.7427C18.1232 44.8661 18.2547 44.9926 18.3843 45.1242C18.4567 45.1976 18.544 45.2942 18.6421 45.4028C19.076 45.8827 19.7228 46.5982 20.239 46.5982C20.8948 46.5982 21.0547 46.4453 21.3639 46.1497C21.5361 45.9851 21.7546 45.7762 22.1308 45.5247C24.1115 44.2015 27.0397 44.9168 28.1353 47.1107C28.5952 48.0316 28.5984 48.2764 28.6034 48.6633C28.606 48.8595 28.609 49.0922 28.6723 49.4681C28.8955 50.7934 30.201 50.7514 31.7788 50.7005C32.0943 50.6904 32.4206 50.6799 32.7514 50.6799C34.2472 50.6799 34.3233 49.6828 34.3908 48.7987C34.4105 48.5413 34.4294 48.2935 34.4824 48.0827C34.5899 47.6548 34.6531 47.5295 34.8052 47.2278C34.8236 47.1913 34.8433 47.1523 34.8645 47.1099C36.0727 44.6903 39.3008 44.0307 41.6189 46.1246C42.7329 47.1311 43.4161 46.4003 44.2397 45.5194C44.3614 45.3893 44.4862 45.2558 44.6159 45.1242C44.6882 45.0507 44.7834 44.9621 44.8904 44.8625C45.3633 44.4222 46.0683 43.7658 46.0683 43.2419C46.0683 42.6178 46.0163 42.5585 45.7236 42.2243C45.6757 42.1696 45.6214 42.1076 45.5598 42.0345C43.5392 39.639 44.2132 36.4415 46.5725 35.2277C47.443 34.7798 47.7619 34.7676 48.1829 34.7514C48.3774 34.7439 48.5936 34.7356 48.8961 34.6832C50.202 34.4566 50.1606 33.1317 50.1105 31.5305C50.1005 31.2103 50.0901 30.8791 50.0901 30.5434C50.0901 29.1411 49.4113 29.0463 48.4359 28.9101C47.8861 28.8334 47.2421 28.7435 46.5725 28.3989C44.246 27.2019 43.5028 23.937 45.6017 21.5439C46.5934 20.4134 45.8733 19.72 45.0054 18.8842C44.8771 18.7607 44.7456 18.6341 44.6159 18.5024C44.5435 18.429 44.4562 18.3324 44.358 18.2238C43.9242 17.7439 43.2774 17.0284 42.7612 17.0284C42.1462 17.0284 42.0878 17.0811 41.7585 17.3782C41.7046 17.4268 41.6435 17.482 41.5715 17.5445C39.2226 19.5851 36.0656 18.9215 34.8645 16.5167C34.4231 15.6332 34.411 15.3096 34.3951 14.8823C34.3878 14.6849 34.3796 14.4655 34.3279 14.1585C34.1047 12.8332 32.7992 12.8752 31.2214 12.926C30.9059 12.9362 30.5795 12.9467 30.2488 12.9467C28.7556 12.9467 28.6819 13.929 28.6168 14.796C28.5965 15.0668 28.577 15.3263 28.5154 15.5411C28.3913 15.9734 28.2795 16.2417 28.1065 16.5773C26.9093 18.8962 23.7128 19.6076 21.3812 17.5016C20.2673 16.4951 19.584 17.2259 18.7605 18.1067C18.6388 18.2369 18.514 18.3704 18.3843 18.502C18.2223 18.6663 18.0643 18.8119 17.9157 18.9489ZM16.7023 16.0326C17.7525 14.9482 18.6374 14.0346 20.4176 14.0346L20.418 14.0358C20.977 14.0358 21.7408 14.2568 22.1478 14.4568C22.7126 14.7344 22.8274 14.8424 23.1555 15.1512C23.2114 15.2038 23.2734 15.2622 23.345 15.3282C24.2683 16.1807 25.5611 15.8294 25.7611 14.5603C25.7876 14.393 25.786 14.2299 25.7845 14.0655C25.7828 13.8891 25.7811 13.7113 25.814 13.5253C26.1317 11.7289 27.871 10.0444 29.6237 10.0444C30.1085 10.0444 30.5699 10.0322 31.0098 10.0206C33.5252 9.95438 35.3331 9.90678 36.7385 12.257C37.0513 12.7803 37.1289 13.4087 37.2009 13.9926C37.3235 14.9854 37.4301 15.8495 38.6504 15.8495C38.9736 15.8495 39.3121 15.578 39.7279 15.2446C40.6126 14.5351 41.8469 13.5454 44.026 14.2944C44.9621 14.6161 45.5976 15.2876 46.257 15.9843C46.3932 16.1282 46.5305 16.2732 46.6716 16.4165C46.8026 16.5494 46.9369 16.6807 47.0716 16.8125C48.0325 17.7521 49.0178 18.7155 49.0178 20.4753C49.0178 22.0198 48.3858 22.7936 47.8818 23.4106C47.4596 23.9275 47.1272 24.3345 47.3311 24.9925C47.4958 25.5242 47.7827 25.8634 48.424 25.9757C48.5735 26.0018 48.7445 26.0111 48.9331 26.0214C49.6302 26.0593 50.5674 26.1103 51.5442 27.072C52.191 27.7088 52.95 28.6679 52.95 29.9086V33.5368C52.95 35.3188 51.6038 36.8798 50.2822 37.3598C49.7184 37.5646 49.2341 37.6005 48.8247 37.6309C48.1031 37.6845 47.6139 37.7208 47.3311 38.6341C47.1383 39.2561 47.433 39.7589 47.7874 40.1362C48.2367 40.6146 48.3809 40.7947 48.6606 41.427C49.2691 42.8032 49.0502 44.4405 48.2023 45.5893C47.825 46.101 45.4843 48.4684 44.9726 48.8421C43.8434 49.667 42.2029 49.833 40.8524 49.1697C40.2876 48.8922 40.1728 48.7842 39.8447 48.4754C39.7888 48.4228 39.7267 48.3644 39.6552 48.2984C38.7322 47.4463 37.4367 47.7976 37.2391 49.0663C37.2052 49.2833 37.2034 49.4511 37.2016 49.6166C37.1981 49.9449 37.1946 50.2644 36.9412 50.9409C36.4777 52.1792 34.9107 53.5818 33.3765 53.5818C32.8917 53.5818 32.4302 53.594 31.9904 53.6056C29.475 53.6718 27.6671 53.7194 26.2617 51.3692C25.861 50.6991 25.8277 50.1506 25.796 49.628C25.7848 49.4435 25.7738 49.2622 25.7468 49.0799C25.556 47.7883 24.2553 47.3737 23.3422 48.2964C22.1991 49.4516 20.6214 49.8983 18.9742 49.3321C18.5653 49.1918 18.2389 49.0021 17.9256 48.7639C17.4902 48.4331 14.9773 45.9085 14.7121 45.4947C13.4106 43.4637 13.9436 41.7306 15.2345 40.0681C15.2694 40.023 15.3042 39.9796 15.3382 39.937C15.6419 39.5577 15.8864 39.2523 15.6462 38.5644C15.4474 37.995 15.0974 37.7199 14.4992 37.6377C14.1619 37.5913 13.9369 37.5801 13.75 37.5707C13.408 37.5535 13.1937 37.5428 12.652 37.3353C11.4363 36.8698 10.0498 35.2746 10.0498 33.7176V29.9082C10.0498 28.6675 10.8088 27.7084 11.4556 27.0716C12.421 26.1213 13.3346 26.0575 14.0761 26.0058C14.8417 25.9523 15.4239 25.9117 15.69 24.9211C15.8624 24.2794 15.5716 23.9337 15.1773 23.4649C14.908 23.1447 14.5904 22.7672 14.3391 22.1988C13.1819 19.5812 14.8329 17.9204 16.1579 16.5875C16.2309 16.5142 16.3028 16.4418 16.3732 16.3704C16.4854 16.2565 16.5947 16.1436 16.7023 16.0326ZM34.4205 25.2217C29.7977 23.0319 24.3503 26.6508 24.3503 31.8136H24.3507C24.3507 32.1925 24.4664 33.0691 24.5506 33.4247C26.1342 40.1097 35.0586 41.1478 37.9963 34.7777C39.6684 31.1515 37.9425 26.8902 34.4205 25.2217ZM24.4174 39.0017C22.2854 36.838 21.4904 34.5122 21.4904 31.3601H21.4908C21.4908 27.5944 23.9891 24.2477 27.2393 22.5908C29.7977 21.2868 33.2443 21.3654 35.8216 22.6209C36.9429 23.167 37.7576 23.787 38.5834 24.625C41.5582 27.6441 42.401 32.3028 40.5582 36.1988C37.5707 42.5148 29.3299 43.9872 24.4174 39.0017Z" fill="#D9D9D9"/>
</g>
<defs>
<filter id="filter0_d_211_49" x="0.0498047" y="0" width="62.9001" height="63.6262" filterUnits="userSpaceOnUse" color-interpolation-filters="sRGB">
<feFlood flood-opacity="0" result="BackgroundImageFix"/>
<feColorMatrix in="SourceAlpha" type="matrix" values="0 0 0 0 0 0 0 0 0 0 0 0 0 0 0 0 0 0 127 0" result="hardAlpha"/>
<feOffset/>
<feGaussianBlur stdDeviation="5"/>
<feComposite in2="hardAlpha" operator="out"/>
<feColorMatrix type="matrix" values="0 0 0 0 1 0 0 0 0 1 0 0 0 0 1 0 0 0 1 0"/>
<feBlend mode="normal" in2="BackgroundImageFix" result="effect1_dropShadow_211_49"/>
<feBlend mode="normal" in="SourceGraphic" in2="effect1_dropShadow_211_49" result="shape"/>
</filter>
</defs>
</svg>
