<svg width="46" height="38" viewBox="0 0 46 38" fill="none" xmlns="http://www.w3.org/2000/svg">
<path fill-rule="evenodd" clip-rule="evenodd" d="M46 32V12C46 8.68629 43.3137 6 40 6H20C20 2.68629 17.3137 0 14 0H6C2.68629 0 0 2.68629 0 6V32C0 35.3137 2.68629 38 6 38H40C43.3137 38 46 35.3137 46 32ZM3 6C3 4.34315 4.34315 3 6 3H14C15.6569 3 17 4.34315 17 6C17 7.65685 18.3431 9 20 9H40C41.6569 9 43 10.3431 43 12V32C43 33.6569 41.6569 35 40 35H6C4.34315 35 3 33.6569 3 32V6ZM17.909 13.249C17.5747 12.917 17.0327 12.917 16.6984 13.249L11.2507 18.6583C10.9164 18.9903 10.9164 19.5285 11.2507 19.8604C11.585 20.1924 12.127 20.1924 12.4613 19.8604L16.4477 15.9021V30H31V28.3H18.1597V15.9021L22.1461 19.8604C22.4804 20.1924 23.0224 20.1924 23.3567 19.8604C23.691 19.5285 23.691 18.9903 23.3567 18.6583L17.909 13.249Z" fill="white"/>
</svg>
