<svg width="218" height="132" viewBox="0 0 218 132" fill="none" xmlns="http://www.w3.org/2000/svg">
<g filter="url(#filter0_dd_204_10)">
<rect x="12" y="12" width="194" height="108" rx="18" fill="url(#paint0_linear_204_10)"/>
<rect x="14" y="14" width="190" height="104" rx="16" stroke="url(#paint1_linear_204_10)" stroke-width="4"/>
</g>
<path fill-rule="evenodd" clip-rule="evenodd" d="M83.5 65.75C83.5 72.7916 77.7916 78.5 70.75 78.5C63.7084 78.5 58 72.7916 58 65.75C58 58.7084 63.7084 53 70.75 53C77.7916 53 83.5 58.7084 83.5 65.75ZM121.75 65.75C121.75 72.7916 116.042 78.5 109 78.5C101.958 78.5 96.25 72.7916 96.25 65.75C96.25 58.7084 101.958 53 109 53C116.042 53 121.75 58.7084 121.75 65.75ZM147.25 78.5C154.292 78.5 160 72.7916 160 65.75C160 58.7084 154.292 53 147.25 53C140.208 53 134.5 58.7084 134.5 65.75C134.5 72.7916 140.208 78.5 147.25 78.5Z" fill="#646464"/>
<defs>
<filter id="filter0_dd_204_10" x="0" y="0" width="218" height="132" filterUnits="userSpaceOnUse" color-interpolation-filters="sRGB">
<feFlood flood-opacity="0" result="BackgroundImageFix"/>
<feColorMatrix in="SourceAlpha" type="matrix" values="0 0 0 0 0 0 0 0 0 0 0 0 0 0 0 0 0 0 127 0" result="hardAlpha"/>
<feOffset dx="-2" dy="-2"/>
<feGaussianBlur stdDeviation="5"/>
<feComposite in2="hardAlpha" operator="out"/>
<feColorMatrix type="matrix" values="0 0 0 0 0.458366 0 0 0 0 0.456456 0 0 0 0 0.456456 0 0 0 1 0"/>
<feBlend mode="normal" in2="BackgroundImageFix" result="effect1_dropShadow_204_10"/>
<feColorMatrix in="SourceAlpha" type="matrix" values="0 0 0 0 0 0 0 0 0 0 0 0 0 0 0 0 0 0 127 0" result="hardAlpha"/>
<feOffset dx="2" dy="2"/>
<feGaussianBlur stdDeviation="5"/>
<feComposite in2="hardAlpha" operator="out"/>
<feColorMatrix type="matrix" values="0 0 0 0 0 0 0 0 0 0 0 0 0 0 0 0 0 0 1 0"/>
<feBlend mode="normal" in2="effect1_dropShadow_204_10" result="effect2_dropShadow_204_10"/>
<feBlend mode="normal" in="SourceGraphic" in2="effect2_dropShadow_204_10" result="shape"/>
</filter>
<linearGradient id="paint0_linear_204_10" x1="164.808" y1="102.247" x2="116.964" y2="-28.534" gradientUnits="userSpaceOnUse">
<stop stop-color="#141414"/>
<stop offset="1" stop-color="#353535"/>
</linearGradient>
<linearGradient id="paint1_linear_204_10" x1="267.123" y1="177.699" x2="174.845" y2="-69.0575" gradientUnits="userSpaceOnUse">
<stop stop-color="#5E5E5E"/>
<stop offset="1"/>
</linearGradient>
</defs>
</svg>
