<svg width="42" height="45" viewBox="0 0 42 45" fill="none" xmlns="http://www.w3.org/2000/svg">
<g filter="url(#filter0_d_269_6089)">
<path fill-rule="evenodd" clip-rule="evenodd" d="M13 10C11.3431 10 10 11.3431 10 13V31.9834C10 33.6402 11.3431 34.9834 13 34.9834H14.8073C16.4642 34.9834 17.8073 33.6402 17.8073 31.9834V13C17.8073 11.3431 16.4642 10 14.8073 10H13ZM26.2724 10C24.6156 10 23.2724 11.3431 23.2724 13V31.9834C23.2724 33.6402 24.6156 34.9834 26.2724 34.9834H28.0797C29.7366 34.9834 31.0797 33.6402 31.0797 31.9834V13C31.0797 11.3431 29.7366 10 28.0797 10H26.2724Z" fill="#D9D9D9"/>
</g>
<defs>
<filter id="filter0_d_269_6089" x="0" y="0" width="41.0801" height="44.9834" filterUnits="userSpaceOnUse" color-interpolation-filters="sRGB">
<feFlood flood-opacity="0" result="BackgroundImageFix"/>
<feColorMatrix in="SourceAlpha" type="matrix" values="0 0 0 0 0 0 0 0 0 0 0 0 0 0 0 0 0 0 127 0" result="hardAlpha"/>
<feOffset/>
<feGaussianBlur stdDeviation="5"/>
<feComposite in2="hardAlpha" operator="out"/>
<feColorMatrix type="matrix" values="0 0 0 0 1 0 0 0 0 1 0 0 0 0 1 0 0 0 1 0"/>
<feBlend mode="normal" in2="BackgroundImageFix" result="effect1_dropShadow_269_6089"/>
<feBlend mode="normal" in="SourceGraphic" in2="effect1_dropShadow_269_6089" result="shape"/>
</filter>
</defs>
</svg>
