<svg width="43" height="46" viewBox="0 0 43 46" fill="none" xmlns="http://www.w3.org/2000/svg">
<path d="M4.32951 32.2275C4.32951 26.811 4.32951 21.3879 4.32951 15.976C6.8618 17.2548 9.38465 18.7399 11.8477 20.0934L19.336 24.2393V40.4909C17.9752 39.8037 16.9726 39.2697 15.6417 38.508C12.1215 36.493 7.61052 34.3244 4.32951 32.2275ZM23.6648 40.491V24.2394L31.1537 20.0939C33.631 18.741 36.0892 17.28 38.6713 15.9761V32.2276L23.6648 40.491ZM21.3563 20.3832C20.9292 20.337 7.98983 12.7397 6.63839 12.3952L21.3563 4.13166L36.3625 12.3952C34.9052 12.7666 22.02 20.455 21.3563 20.3832ZM43 32.2276V13.7725C43 11.106 41.2569 9.98242 39.3477 8.99499C36.8495 7.70262 23.7931 0 22.2218 0C18.9681 0 18.5081 0.808347 14.9924 2.74023L4.02669 8.80056C2.71116 9.51764 0.000817045 10.6646 0.000817045 13.2216L0 30.6965C0.0275186 35.3528 0.611474 35.4518 9.42523 40.0346C11.2387 40.9774 19.6321 46 21.0676 46C22.3543 46 23.5319 45.5629 24.4416 45.0888C25.4452 44.5656 26.3983 44.029 27.364 43.4709L38.8711 37.1009C39.9726 36.5155 40.8157 36.1762 41.6376 35.3344C42.3947 34.5589 43 33.627 43 32.2276Z" fill="#00E0FF" fill-opacity="0.63"/>
</svg>
