<svg width="24" height="26" viewBox="0 0 24 26" fill="none" xmlns="http://www.w3.org/2000/svg">
<path d="M2.41647 18.2155C2.41647 15.1541 2.41647 12.0888 2.41647 9.02989C3.82984 9.75269 5.23795 10.5921 6.61266 11.3571L10.7922 13.7005V22.8862C10.0327 22.4977 9.47305 22.1959 8.73028 21.7654C6.76547 20.6265 4.24773 19.4008 2.41647 18.2155ZM13.2083 22.8862V13.7005L17.3881 11.3574C18.7708 10.5927 20.1428 9.76697 21.584 9.02996V18.2156L13.2083 22.8862ZM11.9198 11.5209C11.6814 11.4948 4.45944 7.20069 3.70515 7.00599L11.9198 2.33529L20.2954 7.00599C19.482 7.21591 12.2902 11.5615 11.9198 11.5209ZM24 18.2156V7.78446C24 6.27728 23.0271 5.64224 21.9615 5.08413C20.5672 4.35365 13.2799 0 12.4029 0C10.5869 0 10.3301 0.456892 8.36784 1.54883L2.24746 4.97423C1.51321 5.37954 0.000456025 6.02779 0.000456025 7.47307L0 17.3502C0.0153592 19.982 0.341288 20.0379 5.26059 22.6283C6.27274 23.1611 10.9574 26 11.7586 26C12.4768 26 13.1341 25.753 13.6418 25.485C14.202 25.1893 14.7339 24.886 15.2729 24.5705L21.6955 20.9701C22.3103 20.6392 22.7808 20.4474 23.2396 19.9716C23.6622 19.5333 24 19.0066 24 18.2156Z" fill="#00E0FF" fill-opacity="0.63"/>
</svg>
