<svg width="45" height="45" viewBox="0 0 45 45" fill="none" xmlns="http://www.w3.org/2000/svg">
<path fill-rule="evenodd" clip-rule="evenodd" d="M42 22.5C42 11.7304 33.2696 3 22.5 3C11.7304 3 3 11.7304 3 22.5C3 33.2696 11.7304 42 22.5 42C33.2696 42 42 33.2696 42 22.5ZM45 22.5C45 10.0736 34.9264 0 22.5 0C10.0736 0 0 10.0736 0 22.5C0 34.9264 10.0736 45 22.5 45C34.9264 45 45 34.9264 45 22.5ZM12.6261 16.4191C12.2072 16.6681 11.8749 17.0635 11.8749 17.6216C11.8749 18.4828 12.6097 18.853 13.3216 19.2117C13.5257 19.3145 13.7278 19.4163 13.9103 19.5285C14.3075 19.7729 14.8778 20.0724 15.4538 20.3748C16.0419 20.6837 16.6361 20.9957 17.058 21.2553L18.9503 22.2971C19.6793 22.7324 20.6688 23.3064 21.8114 23.3064C23.2955 23.3064 23.8607 22.9806 24.9414 22.3578C24.986 22.3321 25.0314 22.3059 25.0779 22.2792C25.2645 22.1715 25.4468 22.0762 25.6278 21.9816C25.8622 21.859 26.0944 21.7376 26.3312 21.592C26.5334 21.4674 26.7434 21.3601 26.9523 21.2533C27.1677 21.1433 27.382 21.0337 27.5858 20.9062C27.9173 20.699 28.4196 20.4338 28.9092 20.1751C29.3764 19.9284 29.8321 19.6877 30.1173 19.5092C30.2824 19.4058 30.4749 19.3101 30.674 19.2111C31.3595 18.8702 32.1237 18.4902 32.1237 17.6209C32.1237 16.7401 31.3636 16.3694 30.6628 16.0277C30.4568 15.9272 30.2559 15.8293 30.081 15.7216C29.6667 15.4668 29.0252 15.1316 28.3978 14.8038C27.8377 14.5112 27.2889 14.2244 26.9226 14.0058C26.7205 13.8851 26.5299 13.783 26.311 13.6712C26.0111 13.5183 25.7073 13.3444 25.3987 13.1676C24.3922 12.5912 23.3338 11.9851 22.1866 11.9851C20.7348 11.9851 20.0766 12.3523 19.1008 12.8968C18.8494 13.0371 18.5769 13.1891 18.2643 13.3497C17.6975 13.6409 17.0522 14.0032 16.408 14.3648C15.7414 14.7391 15.0759 15.1126 14.4997 15.4063L12.6261 16.4191ZM18.9092 30.997C20.0609 31.6606 20.6944 32.0255 22.1873 32.0255V32.0241C22.8351 32.0241 23.3614 31.8496 23.8414 31.6529L26.1868 30.4021C26.2385 30.3722 26.274 30.3496 26.3073 30.3283C26.3561 30.2971 26.4001 30.269 26.4836 30.2255C26.5298 30.2014 26.5722 30.1803 26.6129 30.1602C26.6861 30.1239 26.7534 30.0906 26.8259 30.0475C26.8567 30.029 26.8836 30.0121 26.9095 29.9959C26.9722 29.9565 27.0294 29.9206 27.124 29.8723C27.2479 29.809 27.3525 29.7488 27.4547 29.69C27.5552 29.6322 27.6533 29.5758 27.765 29.5191C28.0054 29.3966 28.5213 29.1051 29.142 28.7543C30.6341 27.9111 32.7318 26.7256 33.0622 26.7256C33.5348 26.7256 34 27.143 34 27.6411C34 28.3207 33.7068 28.4742 33.2239 28.727C33.1038 28.7899 32.9719 28.8589 32.8299 28.9437C32.5944 29.0844 32.3476 29.2178 32.101 29.3512C31.8542 29.4846 31.6076 29.618 31.3726 29.7584L30.6409 30.1627C30.5811 30.194 30.5298 30.2192 30.4802 30.2437C30.4115 30.2774 30.3459 30.3097 30.2649 30.3545L25.874 32.7789C25.7922 32.8216 25.7357 32.8572 25.6799 32.8923C25.6304 32.9235 25.5816 32.9543 25.5162 32.9893C24.9953 33.2673 24.567 33.4853 23.9514 33.6937C23.4493 33.8634 22.6418 34 22 34C20.4344 34 19.571 33.5429 18.4786 32.9646C18.364 32.9039 18.2468 32.8419 18.126 32.7789L15.5469 31.3825C15.412 31.3135 15.2996 31.2496 15.1869 31.1855C15.0707 31.1194 14.9542 31.0531 14.8125 30.981C14.6754 30.9116 14.5553 30.8433 14.4356 30.7752C14.3209 30.7099 14.2065 30.6449 14.0781 30.5794C13.9484 30.5133 13.8343 30.4485 13.7185 30.3829C13.6012 30.3163 13.4822 30.2488 13.3437 30.1779L10.4115 28.567C10.1557 28.4055 10.0248 28.1482 10 27.8778V27.686C10.0423 27.2196 10.386 26.7739 10.9378 26.7739C11.2054 26.7739 11.6864 27.0514 12.0389 27.2546C12.1524 27.3201 12.2526 27.3779 12.328 27.4162L17.5319 30.2579C17.75 30.3835 17.964 30.4932 18.1779 30.6029C18.3932 30.7133 18.6083 30.8236 18.8275 30.9499C18.855 30.9658 18.8822 30.9815 18.9092 30.997ZM19.5001 26.9836C20.4742 27.5225 21.0045 27.6901 22.1873 27.6901H22.1886C22.8546 27.6901 23.6997 27.4286 24.2052 27.1616C24.2694 27.1278 24.3197 27.0956 24.3702 27.0634C24.4194 27.032 24.4688 27.0005 24.5314 26.9671C24.5774 26.9426 24.6221 26.9207 24.6671 26.8987C24.7339 26.866 24.8014 26.8329 24.8751 26.7905L26.4842 25.8908C26.6029 25.8288 26.7023 25.772 26.7999 25.7163C26.9032 25.6572 27.0045 25.5993 27.1246 25.5376L27.765 25.1844C27.811 25.1599 27.8557 25.138 27.9008 25.1159C27.9675 25.0833 28.035 25.0502 28.1087 25.0077L29.7494 24.0922C29.8727 24.0292 29.9771 23.9691 30.0789 23.9105C30.18 23.8524 30.2785 23.7957 30.3905 23.739C30.5105 23.6782 30.6143 23.6186 30.7193 23.5583C30.8264 23.4968 30.9347 23.4347 31.0624 23.3699C31.1908 23.3046 31.3694 23.2023 31.5689 23.088C32.1027 22.7821 32.7866 22.3902 33.0622 22.3902C33.5348 22.3902 34 22.8076 34 23.3057C34 23.9853 33.7068 24.1388 33.2239 24.3916C33.1038 24.4545 32.9719 24.5235 32.8299 24.6083C32.5944 24.749 32.3476 24.8824 32.101 25.0158C31.8542 25.1493 31.6076 25.2826 31.3726 25.4231L30.2649 26.0192C30.2018 26.0541 30.1554 26.0832 30.1104 26.1113C30.0516 26.1482 29.9951 26.1835 29.9065 26.2289L25.5162 28.6539C24.9953 28.9319 24.567 29.15 23.9514 29.3583C23.4493 29.528 22.6418 29.6646 22 29.6646C20.4344 29.6646 19.571 29.2075 18.4786 28.6292C18.364 28.5685 18.2468 28.5065 18.126 28.4435C18.0455 28.402 17.9826 28.3703 17.9177 28.3376C17.8661 28.3116 17.8133 28.2851 17.7494 28.2524L17.0157 27.8509C16.88 27.7818 16.7609 27.7142 16.6424 27.6469C16.5265 27.5811 16.4111 27.5155 16.2813 27.4493C16.1576 27.3864 16.0448 27.3224 15.9296 27.2569C15.8097 27.1888 15.6872 27.1192 15.5469 27.0478L10.4115 24.2323C10.1557 24.0709 10.0248 23.8135 10 23.5431V23.3513C10.0423 22.8849 10.386 22.4392 10.9378 22.4392C11.2054 22.4392 11.6864 22.7167 12.0389 22.9199C12.1524 22.9854 12.2526 23.0432 12.328 23.0815L15.2656 24.6876C15.3469 24.7327 15.4151 24.7665 15.4849 24.801C15.5154 24.8161 15.5462 24.8313 15.5784 24.8477L17.5319 25.9233C17.7514 26.0496 17.9667 26.1601 18.182 26.2706C18.3959 26.3803 18.6097 26.4901 18.8275 26.6152C18.9709 26.6978 19.0941 26.7639 19.2226 26.8329C19.31 26.8798 19.3998 26.9281 19.5001 26.9836ZM34 17.8562V17.4477V17.4471C33.9617 16.8041 33.7456 16.1652 33.3576 15.6319C33.0031 15.1448 32.5708 14.8371 32.0157 14.5543L29.2493 13.062C29.1652 13.0183 29.1093 12.9833 29.0533 12.9482C28.998 12.9136 28.9427 12.8789 28.8599 12.8357C28.7795 12.7942 28.7166 12.7625 28.6516 12.7298C28.6001 12.7039 28.5472 12.6773 28.4833 12.6446L26.5312 11.5677C24.3945 10.3852 22.6699 9.46827 19.9432 10.3534C19.2703 10.5721 17.7921 11.3864 16.5305 12.0814C16.0047 12.3711 15.5166 12.64 15.1401 12.8364L11.6245 14.7633C11.2224 14.9875 10.9183 15.2538 10.6424 15.6326C10.3182 16.0776 10 16.7199 10 17.4774C10 18.633 10.3987 19.5754 11.2318 20.2101L13.5471 21.5403C13.6902 21.6126 13.7784 21.6658 13.8876 21.7317C13.9044 21.7418 13.9217 21.7523 13.9398 21.7631L14.7339 22.1991C15.2754 22.4748 15.9075 22.8328 16.5298 23.1853C16.9976 23.4502 17.46 23.7121 17.8742 23.9336C17.9922 23.9966 18.1087 24.0599 18.2246 24.1229C19.3175 24.7171 20.3558 25.2816 22 25.2816C23.4607 25.2816 24.7751 24.7387 25.6941 24.164L28.437 22.6469C28.4569 22.6367 28.4758 22.6272 28.4939 22.618C28.6211 22.5534 28.7093 22.5087 28.8351 22.4296C29.214 22.1926 29.8445 21.8594 30.4741 21.5265C31.0382 21.2284 31.6015 20.9306 31.9828 20.7027C32.0577 20.658 32.1272 20.6171 32.1923 20.5788C32.6778 20.2932 32.9161 20.153 33.3334 19.6341C33.7416 19.1263 33.9617 18.4998 34 17.8562Z" fill="#9A9A9A"/>
</svg>
