<svg width="63" height="64" viewBox="0 0 63 64" fill="none" xmlns="http://www.w3.org/2000/svg">
<g filter="url(#filter0_d_212_96)">
<path fill-rule="evenodd" clip-rule="evenodd" d="M17.8659 18.9489C17.3073 19.4634 16.8821 19.8552 16.8821 20.6562C16.8821 21.0292 17.0832 21.2506 17.2757 21.4625C17.315 21.5057 17.3538 21.5485 17.3906 21.5921C17.613 21.8559 17.7912 22.0853 17.9619 22.3728C19.2464 24.5365 18.4598 27.3278 16.3779 28.3989C15.9544 28.6166 15.8176 28.6852 15.3479 28.8051C15.0699 28.876 14.86 28.8834 14.6406 28.8912C14.4646 28.8974 14.2825 28.9038 14.0543 28.9434C12.7484 29.17 12.7898 30.4949 12.8399 32.0961C12.8499 32.4163 12.8602 32.7475 12.8602 33.0832C12.8602 34.6013 13.8426 34.6785 14.7138 34.747C14.9674 34.767 15.2116 34.7862 15.4194 34.84C18.3377 35.5954 19.7984 39.2889 17.3487 42.0826C16.3569 43.2136 17.077 43.9068 17.9452 44.7427C18.0734 44.8661 18.2049 44.9926 18.3345 45.1242C18.4069 45.1976 18.4942 45.2942 18.5923 45.4028C19.0262 45.8827 19.673 46.5982 20.1892 46.5982C20.845 46.5982 21.0049 46.4453 21.3141 46.1497C21.4863 45.9851 21.7048 45.7762 22.081 45.5247C24.0617 44.2015 26.9899 44.9168 28.0855 47.1107C28.5454 48.0316 28.5486 48.2764 28.5536 48.6633C28.5562 48.8595 28.5592 49.0922 28.6225 49.4681C28.8457 50.7934 30.1512 50.7514 31.729 50.7005C32.0445 50.6904 32.3708 50.6799 32.7016 50.6799C34.1974 50.6799 34.2735 49.6828 34.341 48.7987C34.3607 48.5413 34.3796 48.2935 34.4326 48.0827C34.5401 47.6548 34.6033 47.5295 34.7554 47.2278C34.7738 47.1913 34.7935 47.1523 34.8147 47.1099C36.0229 44.6903 39.251 44.0307 41.5691 46.1246C42.6831 47.1311 43.3663 46.4003 44.1898 45.5194C44.3116 45.3893 44.4364 45.2558 44.5661 45.1242C44.6384 45.0507 44.7336 44.9621 44.8406 44.8625C45.3135 44.4222 46.0185 43.7658 46.0185 43.2419C46.0185 42.6178 45.9665 42.5585 45.6738 42.2243C45.6259 42.1696 45.5716 42.1076 45.51 42.0345C43.4894 39.639 44.1634 36.4415 46.5227 35.2277C47.3932 34.7798 47.7121 34.7676 48.1331 34.7514C48.3276 34.7439 48.5438 34.7356 48.8463 34.6832C50.1522 34.4566 50.1108 33.1317 50.0607 31.5305C50.0507 31.2103 50.0403 30.8791 50.0403 30.5434C50.0403 29.1411 49.3615 29.0463 48.3861 28.9101C47.8363 28.8334 47.1923 28.7435 46.5227 28.3989C44.1962 27.2019 43.453 23.937 45.5519 21.5439C46.5436 20.4134 45.8235 19.72 44.9556 18.8842C44.8273 18.7607 44.6958 18.6341 44.5661 18.5024C44.4937 18.429 44.4064 18.3324 44.3082 18.2238C43.8744 17.7439 43.2276 17.0284 42.7114 17.0284C42.0964 17.0284 42.038 17.0811 41.7087 17.3782C41.6548 17.4268 41.5937 17.482 41.5217 17.5445C39.1728 19.5851 36.0158 18.9215 34.8147 16.5167C34.3733 15.6332 34.3612 15.3096 34.3453 14.8823C34.338 14.6849 34.3298 14.4655 34.2781 14.1585C34.0549 12.8332 32.7494 12.8752 31.1716 12.926C30.8561 12.9362 30.5297 12.9467 30.199 12.9467C28.7058 12.9467 28.6321 13.929 28.567 14.796C28.5467 15.0668 28.5272 15.3263 28.4656 15.5411C28.3415 15.9734 28.2297 16.2417 28.0567 16.5773C26.8595 18.8962 23.663 19.6076 21.3314 17.5016C20.2175 16.4951 19.5342 17.2259 18.7107 18.1067C18.589 18.2369 18.4642 18.3704 18.3345 18.502C18.1725 18.6663 18.0145 18.8119 17.8659 18.9489ZM16.6525 16.0326C17.7027 14.9482 18.5876 14.0346 20.3678 14.0346L20.3682 14.0358C20.9272 14.0358 21.691 14.2568 22.098 14.4568C22.6628 14.7344 22.7776 14.8424 23.1057 15.1512C23.1616 15.2038 23.2236 15.2622 23.2952 15.3282C24.2185 16.1807 25.5113 15.8294 25.7113 14.5603C25.7378 14.393 25.7362 14.2299 25.7347 14.0655C25.733 13.8891 25.7313 13.7113 25.7642 13.5253C26.0819 11.7289 27.8212 10.0444 29.5739 10.0444C30.0586 10.0444 30.5201 10.0322 30.96 10.0206C33.4754 9.95438 35.2833 9.90678 36.6887 12.257C37.0015 12.7803 37.0791 13.4087 37.1511 13.9926C37.2737 14.9854 37.3803 15.8495 38.6006 15.8495C38.9238 15.8495 39.2623 15.578 39.6781 15.2446C40.5628 14.5351 41.797 13.5454 43.9762 14.2944C44.9123 14.6161 45.5478 15.2876 46.2072 15.9843C46.3434 16.1282 46.4807 16.2732 46.6218 16.4165C46.7528 16.5494 46.8871 16.6807 47.0218 16.8125C47.9827 17.7521 48.968 18.7155 48.968 20.4753C48.968 22.0198 48.336 22.7936 47.832 23.4106C47.4098 23.9275 47.0774 24.3345 47.2813 24.9925C47.446 25.5242 47.7329 25.8634 48.3741 25.9757C48.5237 26.0018 48.6947 26.0111 48.8833 26.0214C49.5804 26.0593 50.5176 26.1103 51.4944 27.072C52.1412 27.7088 52.9002 28.6679 52.9002 29.9086V33.5368C52.9002 35.3188 51.554 36.8798 50.2324 37.3598C49.6686 37.5646 49.1843 37.6005 48.7749 37.6309C48.0533 37.6845 47.5641 37.7208 47.2813 38.6341C47.0885 39.2561 47.3832 39.7589 47.7376 40.1362C48.1869 40.6146 48.3311 40.7947 48.6108 41.427C49.2193 42.8032 49.0004 44.4405 48.1525 45.5893C47.7752 46.101 45.4345 48.4684 44.9228 48.8421C43.7936 49.667 42.1531 49.833 40.8026 49.1697C40.2378 48.8922 40.123 48.7842 39.7949 48.4754C39.739 48.4228 39.6769 48.3644 39.6054 48.2984C38.6824 47.4463 37.3869 47.7976 37.1893 49.0663C37.1554 49.2833 37.1536 49.4511 37.1518 49.6166C37.1483 49.9449 37.1448 50.2644 36.8914 50.9409C36.4279 52.1792 34.8609 53.5818 33.3267 53.5818C32.8419 53.5818 32.3804 53.594 31.9406 53.6056C29.4252 53.6718 27.6173 53.7194 26.2119 51.3692C25.8112 50.6991 25.7779 50.1506 25.7462 49.628C25.735 49.4435 25.724 49.2622 25.697 49.0799C25.5062 47.7883 24.2055 47.3737 23.2924 48.2964C22.1493 49.4516 20.5716 49.8983 18.9244 49.3321C18.5155 49.1918 18.1891 49.0021 17.8758 48.7639C17.4404 48.4331 14.9275 45.9085 14.6623 45.4947C13.3608 43.4637 13.8938 41.7306 15.1847 40.0681C15.2196 40.023 15.2544 39.9796 15.2884 39.937C15.5921 39.5577 15.8365 39.2523 15.5964 38.5644C15.3976 37.995 15.0476 37.7199 14.4494 37.6377C14.1121 37.5913 13.8871 37.5801 13.7002 37.5707C13.3582 37.5535 13.1439 37.5428 12.6022 37.3353C11.3865 36.8698 10 35.2746 10 33.7176V29.9082C10 28.6675 10.759 27.7084 11.4058 27.0716C12.3712 26.1213 13.2848 26.0575 14.0263 26.0058C14.7919 25.9523 15.3741 25.9117 15.6402 24.9211C15.8126 24.2794 15.5217 23.9337 15.1275 23.4649C14.8582 23.1447 14.5406 22.7672 14.2893 22.1988C13.1321 19.5812 14.7831 17.9204 16.1081 16.5875C16.181 16.5142 16.253 16.4418 16.3234 16.3704C16.4356 16.2565 16.5449 16.1436 16.6525 16.0326ZM34.3707 25.2217C29.7479 23.0319 24.3005 26.6508 24.3005 31.8136H24.3009C24.3009 32.1925 24.4166 33.0691 24.5008 33.4247C26.0844 40.1097 35.0088 41.1478 37.9465 34.7777C39.6186 31.1515 37.8927 26.8902 34.3707 25.2217ZM24.3676 39.0017C22.2356 36.838 21.4406 34.5122 21.4406 31.3601H21.441C21.441 27.5944 23.9393 24.2477 27.1895 22.5908C29.7479 21.2868 33.1945 21.3654 35.7718 22.6209C36.8931 23.167 37.7078 23.787 38.5336 24.625C41.5084 27.6441 42.3512 32.3028 40.5084 36.1988C37.5209 42.5148 29.2801 43.9872 24.3676 39.0017Z" fill="#D9D9D9"/>
</g>
<defs>
<filter id="filter0_d_212_96" x="0" y="0" width="62.9001" height="63.6262" filterUnits="userSpaceOnUse" color-interpolation-filters="sRGB">
<feFlood flood-opacity="0" result="BackgroundImageFix"/>
<feColorMatrix in="SourceAlpha" type="matrix" values="0 0 0 0 0 0 0 0 0 0 0 0 0 0 0 0 0 0 127 0" result="hardAlpha"/>
<feOffset/>
<feGaussianBlur stdDeviation="5"/>
<feComposite in2="hardAlpha" operator="out"/>
<feColorMatrix type="matrix" values="0 0 0 0 1 0 0 0 0 1 0 0 0 0 1 0 0 0 1 0"/>
<feBlend mode="normal" in2="BackgroundImageFix" result="effect1_dropShadow_212_96"/>
<feBlend mode="normal" in="SourceGraphic" in2="effect1_dropShadow_212_96" result="shape"/>
</filter>
</defs>
</svg>
