<svg width="43" height="44" viewBox="0 0 43 44" fill="none" xmlns="http://www.w3.org/2000/svg">
<path fill-rule="evenodd" clip-rule="evenodd" d="M7.86586 8.94885C7.30729 9.46343 6.88208 9.85515 6.88208 10.6562C6.88208 11.0292 7.08325 11.2506 7.27571 11.4625C7.31496 11.5057 7.35384 11.5485 7.39058 11.5921C7.61303 11.8559 7.79123 12.0853 7.96192 12.3728C9.24643 14.5365 8.45976 17.3278 6.37791 18.3989C5.95435 18.6166 5.81764 18.6852 5.34785 18.8051C5.06985 18.876 4.85998 18.8834 4.6406 18.8912C4.46462 18.8974 4.28253 18.9038 4.05425 18.9434C2.74836 19.17 2.78979 20.4949 2.83985 22.0961C2.84986 22.4163 2.86022 22.7475 2.86022 23.0832C2.86022 24.6013 3.84264 24.6785 4.71377 24.747C4.9674 24.767 5.2116 24.7862 5.41937 24.84C8.33767 25.5954 9.7984 29.2889 7.3487 32.0826C6.35686 33.2136 7.07696 33.9068 7.9452 34.7427C8.07342 34.8661 8.20487 34.9926 8.33451 35.1242C8.4069 35.1976 8.49417 35.2942 8.59233 35.4028C9.02621 35.8827 9.67299 36.5982 10.1892 36.5982C10.845 36.5982 11.0049 36.4453 11.3141 36.1497C11.4863 35.9851 11.7048 35.7762 12.081 35.5247C14.0617 34.2015 16.9899 34.9168 18.0855 37.1107C18.5454 38.0316 18.5486 38.2764 18.5536 38.6633C18.5562 38.8595 18.5592 39.0922 18.6225 39.4681C18.8457 40.7934 20.1512 40.7514 21.729 40.7005C22.0445 40.6904 22.3708 40.6799 22.7016 40.6799C24.1974 40.6799 24.2735 39.6828 24.341 38.7987C24.3607 38.5413 24.3796 38.2935 24.4326 38.0827C24.5401 37.6548 24.6033 37.5295 24.7554 37.2278C24.7738 37.1913 24.7935 37.1523 24.8147 37.1099C26.0229 34.6903 29.251 34.0307 31.5691 36.1246C32.6831 37.1311 33.3663 36.4003 34.1898 35.5194C34.3116 35.3893 34.4364 35.2558 34.5661 35.1242C34.6384 35.0507 34.7336 34.9621 34.8406 34.8625C35.3135 34.4222 36.0185 33.7658 36.0185 33.2419C36.0185 32.6178 35.9665 32.5585 35.6738 32.2243C35.6259 32.1696 35.5716 32.1076 35.51 32.0345C33.4894 29.639 34.1634 26.4415 36.5227 25.2277C37.3932 24.7798 37.7121 24.7676 38.1331 24.7514C38.3276 24.7439 38.5438 24.7356 38.8463 24.6832C40.1522 24.4566 40.1108 23.1317 40.0607 21.5305C40.0507 21.2103 40.0403 20.8791 40.0403 20.5434C40.0403 19.1411 39.3615 19.0463 38.3861 18.9101C37.8363 18.8334 37.1923 18.7435 36.5227 18.3989C34.1962 17.2019 33.453 13.937 35.5519 11.5439C36.5436 10.4134 35.8235 9.72 34.9556 8.88424C34.8273 8.7607 34.6958 8.63406 34.5661 8.50243C34.4937 8.42897 34.4064 8.33243 34.3082 8.22384C33.8744 7.74387 33.2276 7.02839 32.7114 7.02839C32.0964 7.02839 32.038 7.08111 31.7087 7.37822C31.6548 7.42681 31.5937 7.48195 31.5217 7.54447C29.1728 9.58511 26.0158 8.92147 24.8147 6.51673C24.3733 5.63321 24.3612 5.3096 24.3453 4.8823C24.338 4.68495 24.3298 4.46548 24.2781 4.15851C24.0549 2.83319 22.7494 2.87523 21.1716 2.92605C20.8561 2.93621 20.5297 2.94672 20.199 2.94672C18.7058 2.94672 18.6321 3.92897 18.567 4.79604C18.5467 5.06676 18.5272 5.32626 18.4656 5.54112C18.3415 5.97339 18.2297 6.24165 18.0567 6.57728C16.8595 8.89621 13.663 9.60756 11.3314 7.50156C10.2175 6.49508 9.53423 7.22591 8.71071 8.10674C8.58899 8.23694 8.4642 8.37041 8.33451 8.50203C8.17252 8.66635 8.01447 8.81195 7.86586 8.94885ZM6.65247 6.03257C7.70273 4.9482 8.58758 4.0346 10.3678 4.0346L10.3682 4.03581C10.9272 4.03581 11.691 4.25675 12.098 4.45685C12.6628 4.73439 12.7776 4.84241 13.1057 5.15118C13.1616 5.20376 13.2236 5.26215 13.2952 5.3282C14.2185 6.1807 15.5113 5.82943 15.7113 4.5603C15.7378 4.39298 15.7362 4.22986 15.7347 4.06549C15.733 3.88912 15.7313 3.71132 15.7642 3.52535C16.0819 1.72891 17.8212 0.0443528 19.5739 0.0443528C20.0586 0.0443528 20.5201 0.0322006 20.96 0.0206181C23.4754 -0.0456182 25.2833 -0.0932243 26.6887 2.25702C27.0015 2.78032 27.0791 3.40872 27.1511 3.9926C27.2737 4.98539 27.3803 5.84948 28.6006 5.84948C28.9238 5.84948 29.2623 5.57799 29.6781 5.24459C30.5628 4.53514 31.797 3.54536 33.9762 4.29445C34.9123 4.61613 35.5478 5.2876 36.2072 5.98426C36.3434 6.12821 36.4807 6.27324 36.6218 6.41648C36.7528 6.54943 36.8871 6.68072 37.0218 6.81248C37.9827 7.75209 38.968 8.71552 38.968 10.4753C38.968 12.0198 38.336 12.7936 37.832 13.4106C37.4098 13.9275 37.0774 14.3345 37.2813 14.9925C37.446 15.5242 37.7329 15.8634 38.3741 15.9757C38.5237 16.0018 38.6947 16.0111 38.8833 16.0214C39.5804 16.0593 40.5176 16.1103 41.4944 17.072C42.1412 17.7088 42.9002 18.6679 42.9002 19.9086V23.5368C42.9002 25.3188 41.554 26.8798 40.2324 27.3598C39.6686 27.5646 39.1843 27.6005 38.7749 27.6309C38.0533 27.6845 37.5641 27.7208 37.2813 28.6341C37.0885 29.2561 37.3832 29.7589 37.7376 30.1362C38.1869 30.6146 38.3311 30.7947 38.6108 31.427C39.2193 32.8032 39.0004 34.4405 38.1525 35.5893C37.7752 36.101 35.4345 38.4684 34.9228 38.8421C33.7936 39.667 32.1531 39.833 30.8026 39.1697C30.2378 38.8922 30.123 38.7842 29.7949 38.4754C29.739 38.4228 29.6769 38.3644 29.6054 38.2984C28.6824 37.4463 27.3869 37.7976 27.1893 39.0663C27.1554 39.2833 27.1536 39.4511 27.1518 39.6166C27.1483 39.9449 27.1448 40.2644 26.8914 40.9409C26.4279 42.1792 24.8609 43.5818 23.3267 43.5818C22.8419 43.5818 22.3804 43.594 21.9406 43.6056C19.4252 43.6718 17.6173 43.7194 16.2119 41.3692C15.8112 40.6991 15.7779 40.1506 15.7462 39.628C15.735 39.4435 15.724 39.2622 15.697 39.0799C15.5062 37.7883 14.2055 37.3737 13.2924 38.2964C12.1493 39.4516 10.5716 39.8983 8.92441 39.3321C8.51547 39.1918 8.18911 39.0021 7.87578 38.7639C7.44037 38.4331 4.92745 35.9085 4.66233 35.4947C3.36083 33.4637 3.89384 31.7306 5.18467 30.0681C5.21961 30.023 5.2544 29.9796 5.28844 29.937C5.5921 29.5577 5.83655 29.2523 5.59638 28.5644C5.39764 27.995 5.04757 27.7199 4.44937 27.6377C4.11206 27.5913 3.88709 27.5801 3.70022 27.5707C3.35824 27.5535 3.14388 27.5428 2.60221 27.3353C1.38645 26.8698 0 25.2746 0 23.7176V19.9082C0 18.6675 0.759012 17.7084 1.40581 17.0716C2.37115 16.1213 3.28476 16.0575 4.02626 16.0058C4.79192 15.9523 5.37408 15.9117 5.64024 14.9211C5.81256 14.2794 5.52175 13.9337 5.12745 13.4649C4.85816 13.1447 4.5406 12.7672 4.28935 12.1988C3.13212 9.58118 4.78309 7.92042 6.10813 6.58753C6.18105 6.51418 6.25297 6.44183 6.32339 6.37037C6.43558 6.25651 6.54489 6.14364 6.65247 6.03257ZM24.3707 15.2217C19.7479 13.0319 14.3005 16.6508 14.3005 21.8136H14.3009C14.3009 22.1925 14.4166 23.0691 14.5008 23.4247C16.0844 30.1097 25.0088 31.1478 27.9465 24.7777C29.6186 21.1515 27.8927 16.8902 24.3707 15.2217ZM14.3676 29.0017C12.2356 26.838 11.4406 24.5122 11.4406 21.3601H11.441C11.441 17.5944 13.9393 14.2477 17.1895 12.5908C19.7479 11.2868 23.1945 11.3654 25.7718 12.6209C26.8931 13.167 27.7078 13.787 28.5336 14.625C31.5084 17.6441 32.3512 22.3028 30.5084 26.1988C27.5209 32.5148 19.2801 33.9872 14.3676 29.0017Z" fill="#9A9A9A"/>
</svg>
