<svg width="67" height="67" viewBox="0 0 67 67" fill="none" xmlns="http://www.w3.org/2000/svg">
<g filter="url(#filter0_d_212_92)">
<path fill-rule="evenodd" clip-rule="evenodd" d="M32.5768 56.6176C33.0867 57.1275 33.9133 57.1275 34.4232 56.6176L42.7317 48.3091C43.2415 47.7993 43.2415 46.9726 42.7317 46.4628C42.2218 45.9529 41.3952 45.9529 40.8853 46.4628L34.8056 52.5426V34.8056H52.5426L46.4628 40.8854C45.9529 41.3952 45.9529 42.2219 46.4628 42.7317C46.9726 43.2416 47.7993 43.2416 48.3091 42.7317L56.6176 34.4232C57.1275 33.9134 57.1275 33.0867 56.6176 32.5769L48.3091 24.2684C47.7993 23.7585 46.9726 23.7585 46.4628 24.2684C45.9529 24.7782 45.9529 25.6048 46.4628 26.1147L52.5426 32.1945L34.8056 32.1945V14.4574L40.8853 20.5372C41.3952 21.0471 42.2218 21.0471 42.7317 20.5372C43.2415 20.0274 43.2415 19.2007 42.7317 18.6909L34.4232 10.3824C33.9133 9.87254 33.0867 9.87254 32.5768 10.3824L24.2683 18.6909C23.7585 19.2007 23.7585 20.0274 24.2683 20.5372C24.7782 21.0471 25.6048 21.0471 26.1147 20.5372L32.1944 14.4574V32.1945L14.4574 32.1945L20.5372 26.1147C21.0471 25.6049 21.0471 24.7782 20.5372 24.2684C20.0274 23.7585 19.2007 23.7585 18.6909 24.2684L10.3824 32.5769C9.87254 33.0867 9.87254 33.9134 10.3824 34.4232L18.6909 42.7317C19.2007 43.2416 20.0274 43.2416 20.5372 42.7317C21.0471 42.2219 21.0471 41.3952 20.5372 40.8854L14.4574 34.8056H32.1944V52.5426L26.1147 46.4628C25.6048 45.9529 24.7782 45.9529 24.2683 46.4628C23.7585 46.9726 23.7585 47.7993 24.2683 48.3091L32.5768 56.6176Z" fill="#D9D9D9"/>
</g>
<defs>
<filter id="filter0_d_212_92" x="0" y="0" width="67" height="67" filterUnits="userSpaceOnUse" color-interpolation-filters="sRGB">
<feFlood flood-opacity="0" result="BackgroundImageFix"/>
<feColorMatrix in="SourceAlpha" type="matrix" values="0 0 0 0 0 0 0 0 0 0 0 0 0 0 0 0 0 0 127 0" result="hardAlpha"/>
<feOffset/>
<feGaussianBlur stdDeviation="5"/>
<feComposite in2="hardAlpha" operator="out"/>
<feColorMatrix type="matrix" values="0 0 0 0 1 0 0 0 0 1 0 0 0 0 1 0 0 0 1 0"/>
<feBlend mode="normal" in2="BackgroundImageFix" result="effect1_dropShadow_212_92"/>
<feBlend mode="normal" in="SourceGraphic" in2="effect1_dropShadow_212_92" result="shape"/>
</filter>
</defs>
</svg>
