<svg width="376" height="376" viewBox="0 0 376 376" fill="none" xmlns="http://www.w3.org/2000/svg">
<g filter="url(#filter0_dd_216_3)">
<mask id="path-1-inside-1_216_3" fill="white">
<path d="M364 188C364 285.202 285.202 364 188 364C90.7979 364 12 285.202 12 188C12 90.7979 90.7979 12 188 12C285.202 12 364 90.7979 364 188ZM41.9975 188C41.9975 268.635 107.365 334.002 188 334.002C268.635 334.002 334.002 268.635 334.002 188C334.002 107.365 268.635 41.9975 188 41.9975C107.365 41.9975 41.9975 107.365 41.9975 188Z"/>
</mask>
<path d="M364 188C364 285.202 285.202 364 188 364C90.7979 364 12 285.202 12 188C12 90.7979 90.7979 12 188 12C285.202 12 364 90.7979 364 188ZM41.9975 188C41.9975 268.635 107.365 334.002 188 334.002C268.635 334.002 334.002 268.635 334.002 188C334.002 107.365 268.635 41.9975 188 41.9975C107.365 41.9975 41.9975 107.365 41.9975 188Z" fill="url(#paint0_linear_216_3)"/>
<path d="M364 188C364 285.202 285.202 364 188 364C90.7979 364 12 285.202 12 188C12 90.7979 90.7979 12 188 12C285.202 12 364 90.7979 364 188ZM41.9975 188C41.9975 268.635 107.365 334.002 188 334.002C268.635 334.002 334.002 268.635 334.002 188C334.002 107.365 268.635 41.9975 188 41.9975C107.365 41.9975 41.9975 107.365 41.9975 188Z" stroke="url(#paint1_linear_216_3)" stroke-width="8" mask="url(#path-1-inside-1_216_3)"/>
</g>
<defs>
<filter id="filter0_dd_216_3" x="0" y="0" width="376" height="376" filterUnits="userSpaceOnUse" color-interpolation-filters="sRGB">
<feFlood flood-opacity="0" result="BackgroundImageFix"/>
<feColorMatrix in="SourceAlpha" type="matrix" values="0 0 0 0 0 0 0 0 0 0 0 0 0 0 0 0 0 0 127 0" result="hardAlpha"/>
<feOffset dx="-2" dy="-2"/>
<feGaussianBlur stdDeviation="5"/>
<feComposite in2="hardAlpha" operator="out"/>
<feColorMatrix type="matrix" values="0 0 0 0 0.458366 0 0 0 0 0.456456 0 0 0 0 0.456456 0 0 0 1 0"/>
<feBlend mode="normal" in2="BackgroundImageFix" result="effect1_dropShadow_216_3"/>
<feColorMatrix in="SourceAlpha" type="matrix" values="0 0 0 0 0 0 0 0 0 0 0 0 0 0 0 0 0 0 127 0" result="hardAlpha"/>
<feOffset dx="2" dy="2"/>
<feGaussianBlur stdDeviation="5"/>
<feComposite in2="hardAlpha" operator="out"/>
<feColorMatrix type="matrix" values="0 0 0 0 0 0 0 0 0 0 0 0 0 0 0 0 0 0 1 0"/>
<feBlend mode="normal" in2="effect1_dropShadow_216_3" result="effect2_dropShadow_216_3"/>
<feBlend mode="normal" in="SourceGraphic" in2="effect2_dropShadow_216_3" result="shape"/>
</filter>
<linearGradient id="paint0_linear_216_3" x1="289.26" y1="306.137" x2="67.4521" y2="-31.3973" gradientUnits="userSpaceOnUse">
<stop stop-color="#141414"/>
<stop offset="1" stop-color="#353535"/>
</linearGradient>
<linearGradient id="paint1_linear_216_3" x1="474.904" y1="552.055" x2="50.5754" y2="-79.6164" gradientUnits="userSpaceOnUse">
<stop stop-color="#5E5E5E"/>
<stop offset="1"/>
</linearGradient>
</defs>
</svg>
